<svg xmlns="http://www.w3.org/2000/svg" viewBox="0 0 1080 1080"><defs><style>.cls-1{fill:none;}.cls-2{fill:#eb572f;}.cls-2,.cls-3,.cls-4{fill-rule:evenodd;}.cls-3{fill:#f9c61d;}.cls-4{fill:#ef8a23;}</style></defs><title>icon-ts-color</title><g id="Layer_2" data-name="Layer 2"><g id="Layer_1-2" data-name="Layer 1"><rect class="cls-1" width="1080" height="1080"/><path class="cls-2" d="M634.17,567.78a101.9,101.9,0,1,1-101.89-101.9A101.89,101.89,0,0,1,634.17,567.78Z"/><path class="cls-3" d="M634.17,370.24c0,1,0,2.06,0,3.09v100c-1.18-1.28-2.4-2.54-3.64-3.78A138.89,138.89,0,1,0,434.07,666a139.72,139.72,0,0,0,17.13,14.59A105.52,105.52,0,0,0,427.83,764a222.23,222.23,0,0,1-117.77-196.2c0-122.73,99.49-222.22,222.22-222.22A221.21,221.21,0,0,1,634.17,370.24Z"/><path class="cls-4" d="M754.5,290V567.78c0,102-68.72,188-162.4,214.07a223.61,223.61,0,0,1-119.64,0,68.59,68.59,0,0,1,12.66-83.36,139,139,0,0,0,186-130.71V373.33A83.33,83.33,0,0,1,754.5,290Z"/></g></g></svg>