<svg xmlns="http://www.w3.org/2000/svg" viewBox="0 0 960 1080"><defs><style>.cls-1,.cls-2{fill:#1e1b1e;}.cls-2{fill-rule:evenodd;}</style></defs><title>icon-dark</title><g id="Layer_2" data-name="Layer 2"><g id="Layer_1-2" data-name="Layer 1"><circle class="cls-1" cx="480" cy="600" r="220.09" transform="translate(-283.68 515.14) rotate(-45)"/><path class="cls-2" d="M180,600A300,300,0,0,1,692.13,387.86q4,4,7.87,8.17V180c0-2.23,0-4.47.09-6.69A478,478,0,0,0,480,120C214.9,120,0,334.9,0,600c0,183.54,103,343,254.39,423.78a227.89,227.89,0,0,1,50.48-180.13,302.51,302.51,0,0,1-37-31.52A298.06,298.06,0,0,1,180,600Z"/><path class="cls-2" d="M780,180V600A300.39,300.39,0,0,1,378.13,882.34a148.21,148.21,0,0,0-27.34,180.06,483.1,483.1,0,0,0,258.42,0C811.55,1006,960,820.33,960,600V0A180,180,0,0,0,780,180Z"/></g></g></svg>