<svg xmlns="http://www.w3.org/2000/svg" viewBox="0 0 1080 1080"><defs><style>.cls-1{fill:none;}.cls-2,.cls-3{fill:#fff;}.cls-3{fill-rule:evenodd;}</style></defs><title>icon-ts-white</title><g id="Layer_2" data-name="Layer 2"><g id="Layer_1-2" data-name="Layer 1"><rect class="cls-1" width="1080" height="1080"/><circle class="cls-2" cx="532.28" cy="567.78" r="101.89" transform="matrix(0.16, -0.99, 0.99, 0.16, -113.43, 1002.23)"/><path class="cls-3" d="M634.17,370.24c0,1,0,2.06,0,3.09v100c-1.19-1.28-2.4-2.54-3.65-3.78A138.89,138.89,0,0,0,434.07,666a140.47,140.47,0,0,0,17.13,14.59,105.54,105.54,0,0,0-24.54,67.7A105.42,105.42,0,0,0,427.83,764,222.19,222.19,0,0,1,310.06,567.78c0-122.73,99.49-222.22,222.22-222.22A221.34,221.34,0,0,1,634.17,370.24Z"/><path class="cls-3" d="M754.5,290V567.78c0,102-68.72,188-162.4,214.07a223.61,223.61,0,0,1-119.64,0,68.59,68.59,0,0,1,12.66-83.36,139,139,0,0,0,186-130.71V373.33A83.33,83.33,0,0,1,754.5,290Z"/></g></g></svg>