<svg xmlns="http://www.w3.org/2000/svg" viewBox="0 0 1080 1080"><defs><style>.cls-1{fill:#fff;}.cls-2,.cls-3{fill:#1e1b1e;}.cls-3{fill-rule:evenodd;}</style></defs><title>icon-sq-dark</title><g id="Layer_2" data-name="Layer 2"><g id="Layer_1-2" data-name="Layer 1"><rect class="cls-1" width="1080" height="1080"/><circle class="cls-2" cx="532.28" cy="567.78" r="101.89" transform="translate(-245.58 542.68) rotate(-45)"/><path class="cls-3" d="M634.17,370.24c0,1,0,2.06,0,3.09v100c-1.18-1.28-2.4-2.54-3.64-3.78a138.89,138.89,0,1,0-179.29,211A105.52,105.52,0,0,0,427.83,764a222.22,222.22,0,0,1-117.77-196.2c0-122.74,99.49-222.22,222.22-222.22A221.21,221.21,0,0,1,634.17,370.24Z"/><path class="cls-3" d="M754.5,290V567.78c0,102-68.72,188-162.4,214.07a223.61,223.61,0,0,1-119.64,0,68.6,68.6,0,0,1,12.65-83.36A139,139,0,0,0,671.17,567.78V373.33A83.33,83.33,0,0,1,754.5,290Z"/></g></g></svg>