<svg xmlns="http://www.w3.org/2000/svg" viewBox="0 0 960 1080"><defs><style>.cls-1{fill:#eb572f;}.cls-1,.cls-2,.cls-3{fill-rule:evenodd;}.cls-2{fill:#f9c61d;}.cls-3{fill:#ef8a23;}</style></defs><title>icon-color</title><g id="Layer_2" data-name="Layer 2"><g id="Layer_1-2" data-name="Layer 1"><path class="cls-1" d="M700.09,600c0-121.55-98.53-220.08-220.09-220.08S259.91,478.45,259.91,600,358.45,820.09,480,820.09,700.09,721.55,700.09,600Z"/><path class="cls-2" d="M180,600A300,300,0,0,1,692.13,387.87q4,4,7.87,8.17V180c0-2.22,0-4.46.09-6.67A477.77,477.77,0,0,0,480,120C214.9,120,0,334.9,0,600c0,183.54,103,343,254.39,423.78a227.89,227.89,0,0,1,50.48-180.13,302.51,302.51,0,0,1-37-31.52A298,298,0,0,1,180,600Z"/><path class="cls-3" d="M780,180V600A300.39,300.39,0,0,1,378.13,882.34a148.22,148.22,0,0,0-27.34,180.07,483.36,483.36,0,0,0,258.42,0C811.55,1006,960,820.33,960,600V0A180,180,0,0,0,780,180Z"/></g></g></svg>