<svg xmlns="http://www.w3.org/2000/svg" viewBox="0 0 1756.5 376.53"><defs><style>.cls-1{fill:#eb572f;}.cls-1,.cls-2,.cls-3{fill-rule:evenodd;}.cls-2{fill:#f9c61d;}.cls-3{fill:#ef8a23;}.cls-4{fill:#fff;}</style></defs><title>logo-duotone</title><g id="Layer_2" data-name="Layer 2"><g id="Layer_1-2" data-name="Layer 1"><path class="cls-1" d="M244.08,209.18a76.74,76.74,0,1,0-76.73,76.74A76.73,76.73,0,0,0,244.08,209.18Z"/><path class="cls-2" d="M62.75,209.18a104.6,104.6,0,0,1,178.56-74c.93.93,1.84,1.89,2.74,2.85V62.76c0-.78,0-1.56,0-2.33A167.38,167.38,0,0,0,88.69,356.93a79.51,79.51,0,0,1,17.6-62.8,105.45,105.45,0,0,1-12.9-11A103.88,103.88,0,0,1,62.75,209.18Z"/><path class="cls-3" d="M271.94,62.76V209.18a104.72,104.72,0,0,1-140.11,98.44,51.68,51.68,0,0,0-9.53,62.78A167.35,167.35,0,0,0,334.7,209.18V0A62.76,62.76,0,0,0,271.94,62.76Z"/><path class="cls-4" d="M484.81,90A46.56,46.56,0,0,0,469,80.63a59.55,59.55,0,0,0-20-3.23H410.17v92.09h39.07A58.54,58.54,0,0,0,469,166.26,46.81,46.81,0,0,0,484.81,157a42.06,42.06,0,0,0,10.41-14.56,47.09,47.09,0,0,0,3.68-18.94,47.14,47.14,0,0,0-3.68-19A41.93,41.93,0,0,0,484.81,90Zm-15.14,46.82a18.2,18.2,0,0,1-8.15,8.08A27.7,27.7,0,0,1,449,147.5H436V99.39H449A27.32,27.32,0,0,1,461.46,102a18.89,18.89,0,0,1,8.15,7.95q2.91,5.31,2.91,13.33A28.72,28.72,0,0,1,469.67,136.77Z"/><path class="cls-4" d="M624.62,169.49,590,77.4H563.57l-35.05,92.09h26.39L560.14,154h32.47l5.11,15.52Zm-57.68-35.7,9.64-28.57,9.4,28.57Z"/><path class="cls-4" d="M684.18,97.84a13.55,13.55,0,0,1,6.41-1.3,21.59,21.59,0,0,1,9.31,2,32.09,32.09,0,0,1,8.54,6.14l16.29-16.17a38.59,38.59,0,0,0-14.68-9.37,54.57,54.57,0,0,0-19.2-3.3,44.74,44.74,0,0,0-18.24,3.43,26.18,26.18,0,0,0-16.3,25.28,26.06,26.06,0,0,0,2.33,11.58,23.72,23.72,0,0,0,6.14,7.89,41.6,41.6,0,0,0,8.35,5.37,79.48,79.48,0,0,0,9.11,3.75c3.06,1,5.87,2,8.41,3a23.44,23.44,0,0,1,6.15,3.36,5.81,5.81,0,0,1,2.32,4.72,5,5,0,0,1-2.71,4.46c-1.81,1.08-4.49,1.62-8,1.62a28.49,28.49,0,0,1-11.9-2.52,38.75,38.75,0,0,1-10.61-7.31l-16.17,16.17a46.45,46.45,0,0,0,16.11,10.93,56,56,0,0,0,20.5,3.42q18.24,0,28.26-7.69t10-21.8a27.69,27.69,0,0,0-2.32-11.9,24.86,24.86,0,0,0-6.15-8.21,36.23,36.23,0,0,0-8.34-5.43,87.91,87.91,0,0,0-9.12-3.69q-4.59-1.54-8.41-3a24.78,24.78,0,0,1-6.14-3.17,5.35,5.35,0,0,1-2.33-4.46A4.16,4.16,0,0,1,684.18,97.84Z"/><path class="cls-4" d="M787.08,77.4,752,169.49h26.38L783.65,154h32.47l5.1,15.52h26.91L813.46,77.4Zm3.37,56.39,9.63-28.57,9.4,28.57Z"/><polygon class="cls-4" points="953.8 124.78 983.8 169.49 1014.85 169.49 980.91 121.31 1013.42 77.4 982.25 77.4 953.8 118.34 953.8 77.4 927.93 77.4 927.93 169.49 953.8 169.49 953.8 124.78"/><path class="cls-4" d="M1072.66,132.76h.36l23.44,36.73h29.36l-27-38.36a35.41,35.41,0,0,0,5.1-1.86,28.1,28.1,0,0,0,11.7-9.7,25.24,25.24,0,0,0,4.2-14.49,25.58,25.58,0,0,0-4.13-14.49,28,28,0,0,0-11.39-9.7,38.25,38.25,0,0,0-16.81-3.49H1046.8v92.09h25.86ZM1083.4,96c3.53,0,6.23.86,8.08,2.58a9.84,9.84,0,0,1,0,13.71c-1.85,1.73-4.55,2.59-8.08,2.59h-10.74V96Z"/><polygon class="cls-4" points="1184.03 133.02 1223.74 133.02 1223.74 112.06 1184.03 112.06 1184.03 98.87 1227.74 98.87 1227.74 77.4 1184.03 77.4 1179.11 77.4 1158.16 77.4 1158.16 169.49 1179.11 169.49 1184.03 169.49 1228.52 169.49 1228.52 148.02 1184.03 148.02 1184.03 133.02"/><path class="cls-4" d="M1294.87,77.4l-35,92.09h26.39l5.23-15.52h32.47l5.11,15.52h26.9L1321.26,77.4Zm3.37,56.39,9.64-28.57,9.4,28.57Z"/><polygon class="cls-4" points="1402.1 77.4 1374.55 77.4 1374.55 99.39 1402.1 99.39 1402.1 169.49 1427.97 169.49 1427.97 99.39 1455.65 99.39 1455.65 77.4 1427.97 77.4 1402.1 77.4"/><rect class="cls-4" x="1491.22" y="77.4" width="25.87" height="92.09"/><polygon class="cls-4" points="1597.84 133.8 1578.91 77.4 1551.49 77.4 1585.25 169.49 1609.82 169.49 1644.1 77.4 1617.07 77.4 1597.84 133.8"/><path class="cls-4" d="M1729.59,169.49h26.91L1721.83,77.4h-26.38l-35,92.09h26.38L1692,154h32.48Zm-30.77-35.7,9.63-28.57,9.4,28.57Z"/><path class="cls-4" d="M437.79,253.05a13.5,13.5,0,0,1,6.4-1.3,21.56,21.56,0,0,1,9.31,2A32.09,32.09,0,0,1,462,259.9l16.3-16.16a38.57,38.57,0,0,0-14.68-9.38,54.62,54.62,0,0,0-19.21-3.3,44.8,44.8,0,0,0-18.24,3.43,26.15,26.15,0,0,0-16.29,25.28,26.06,26.06,0,0,0,2.32,11.58,23.75,23.75,0,0,0,6.15,7.89,41.25,41.25,0,0,0,8.34,5.37,80.37,80.37,0,0,0,9.12,3.75c3.06,1,5.86,2.05,8.41,3a23.2,23.2,0,0,1,6.14,3.36,5.83,5.83,0,0,1,2.33,4.72,5,5,0,0,1-2.72,4.46q-2.72,1.62-8,1.62a28.52,28.52,0,0,1-11.9-2.52,38.56,38.56,0,0,1-10.6-7.31L403.32,311.9a46.32,46.32,0,0,0,16.1,10.93,56.07,56.07,0,0,0,20.5,3.43q18.24,0,28.26-7.7t10-21.79a27.63,27.63,0,0,0-2.33-11.9,24.64,24.64,0,0,0-6.14-8.22,36.51,36.51,0,0,0-8.35-5.43,88.66,88.66,0,0,0-9.11-3.69q-4.61-1.54-8.41-3a24.87,24.87,0,0,1-6.15-3.17,5.34,5.34,0,0,1-2.32-4.46A4.15,4.15,0,0,1,437.79,253.05Z"/><polygon class="cls-4" points="533.96 232.61 506.41 232.61 506.41 254.6 533.96 254.6 533.96 324.7 559.82 324.7 559.82 254.6 587.5 254.6 587.5 232.61 559.82 232.61 533.96 232.61"/><path class="cls-4" d="M675.84,289.78a14.29,14.29,0,0,1-1.81,7.44,12,12,0,0,1-5,4.65,15.82,15.82,0,0,1-7.3,1.62,16.34,16.34,0,0,1-7.31-1.62,12.52,12.52,0,0,1-5.24-4.72,13.9,13.9,0,0,1-1.94-7.5v-57H621.39v54.71a39.76,39.76,0,0,0,5.05,20.18,35.78,35.78,0,0,0,14.09,13.78q9.06,5,21.22,5t21.14-5a35.56,35.56,0,0,0,14-13.71,39.9,39.9,0,0,0,5-20.12V232.61h-26Z"/><path class="cls-4" d="M815.92,245.16a46.4,46.4,0,0,0-15.84-9.31,59.32,59.32,0,0,0-20-3.24h-38.8V324.7h39.06a58.35,58.35,0,0,0,19.79-3.23,46.51,46.51,0,0,0,15.78-9.31,41.9,41.9,0,0,0,10.41-14.55,50.5,50.5,0,0,0,0-37.9A41.8,41.8,0,0,0,815.92,245.16ZM800.79,292a18.25,18.25,0,0,1-8.15,8.08,27.74,27.74,0,0,1-12.55,2.66H767.16V254.6h12.93a27.29,27.29,0,0,1,12.48,2.65,18.8,18.8,0,0,1,8.15,8q2.91,5.3,2.91,13.32A28.82,28.82,0,0,1,800.79,292Z"/><rect class="cls-4" x="866.49" y="232.61" width="25.87" height="92.09"/><path class="cls-4" d="M1014.59,244.38a47.54,47.54,0,0,0-15.85-10,57.85,57.85,0,0,0-40,0,47.54,47.54,0,0,0-15.85,10,45.59,45.59,0,0,0-10.41,15.13,50.4,50.4,0,0,0,.07,38,45.32,45.32,0,0,0,10.54,15.26A48.77,48.77,0,0,0,959,322.89a56.94,56.94,0,0,0,39.77.07,47.28,47.28,0,0,0,15.78-10.09A46,46,0,0,0,1025,297.61a50.84,50.84,0,0,0,0-38A45.37,45.37,0,0,0,1014.59,244.38Zm-15.13,47.47a20.66,20.66,0,0,1-8.15,8.8,24.41,24.41,0,0,1-12.55,3.1A25.76,25.76,0,0,1,969,302a20.62,20.62,0,0,1-7.44-5,21.83,21.83,0,0,1-4.72-7.95,31.8,31.8,0,0,1-1.62-10.48,29,29,0,0,1,2.85-13.26,20.31,20.31,0,0,1,8.14-8.67,24.9,24.9,0,0,1,12.55-3,26,26,0,0,1,9.77,1.75,20.82,20.82,0,0,1,7.43,5.05,21.83,21.83,0,0,1,4.72,7.89,30.71,30.71,0,0,1,1.62,10.28A29.5,29.5,0,0,1,999.46,291.85Z"/><path class="cls-4" d="M1123.11,237.53,1117,254.86c-.78,2.59-1.56,5.56-2.46,8.79h-.13c-.91-3.62-1.55-6.2-2.33-8.92l-6.08-17.2h-10.47L1093,272.71h6.72L1101,252c.13-3.23.26-6.59.26-9.83h.38c.78,3.11,1.82,7.25,2.46,10l6.34,20.05h7.24l6.34-19.53c1-3.23,2.07-7.37,3-10.48h.38c.13,3.76.13,7.12.26,9.83l1.3,20.7h7l-2.72-35.18Z"/><polygon class="cls-4" points="1061.41 243.35 1072.66 243.35 1072.66 272.71 1079.65 272.71 1079.65 243.35 1090.9 243.35 1090.9 237.53 1061.41 237.53 1061.41 243.35"/></g></g></svg>