<svg xmlns="http://www.w3.org/2000/svg" viewBox="0 0 1756.5 376.53"><defs><style>.cls-1{fill:#eb572f;}.cls-1,.cls-2,.cls-3{fill-rule:evenodd;}.cls-2{fill:#f9c61d;}.cls-3{fill:#ef8a23;}.cls-4{fill:#231f20;}</style></defs><title>logo-alt-color</title><g id="Layer_2" data-name="Layer 2"><g id="Layer_1-2" data-name="Layer 1"><path class="cls-1" d="M244.08,209.18a76.74,76.74,0,1,0-76.73,76.74A76.73,76.73,0,0,0,244.08,209.18Z"/><path class="cls-2" d="M62.75,209.18a104.6,104.6,0,0,1,178.56-74c.93.93,1.84,1.89,2.74,2.85V62.76c0-.78,0-1.56,0-2.33A167.38,167.38,0,0,0,88.69,356.93a79.51,79.51,0,0,1,17.6-62.8,105.45,105.45,0,0,1-12.9-11A103.88,103.88,0,0,1,62.75,209.18Z"/><path class="cls-3" d="M271.94,62.76V209.18a104.72,104.72,0,0,1-140.11,98.44,51.68,51.68,0,0,0-9.53,62.78A167.35,167.35,0,0,0,334.7,209.18V0A62.76,62.76,0,0,0,271.94,62.76Z"/><path class="cls-4" d="M484.81,16.37A46.7,46.7,0,0,0,469,7.06a59.55,59.55,0,0,0-20-3.23H410.17V95.92h39.07A58.54,58.54,0,0,0,469,92.69a46.67,46.67,0,0,0,15.79-9.32,41.93,41.93,0,0,0,10.41-14.55,47.1,47.1,0,0,0,3.68-18.95,47.17,47.17,0,0,0-3.68-18.95A42.12,42.12,0,0,0,484.81,16.37ZM469.67,63.2a18.25,18.25,0,0,1-8.15,8.08A27.7,27.7,0,0,1,449,73.93H436V25.82H449a27.32,27.32,0,0,1,12.48,2.65,18.89,18.89,0,0,1,8.15,8q2.91,5.31,2.91,13.32A28.76,28.76,0,0,1,469.67,63.2Z"/><path class="cls-4" d="M624.62,95.92,590,3.83H563.57L528.52,95.92h26.39l5.23-15.52h32.47l5.11,15.52Zm-57.68-35.7,9.64-28.57L586,60.22Z"/><path class="cls-4" d="M684.18,24.26A13.55,13.55,0,0,1,690.59,23a21.59,21.59,0,0,1,9.31,2,31.87,31.87,0,0,1,8.54,6.14L724.73,15a38.61,38.61,0,0,0-14.68-9.38,54.57,54.57,0,0,0-19.2-3.29A44.91,44.91,0,0,0,672.61,5.7a27.17,27.17,0,0,0-12,9.9A27.26,27.26,0,0,0,656.31,31a26.06,26.06,0,0,0,2.33,11.58,23.93,23.93,0,0,0,6.14,7.89,41.13,41.13,0,0,0,8.35,5.36,76,76,0,0,0,9.11,3.75c3.06,1,5.87,2,8.41,3A23.73,23.73,0,0,1,696.8,66a5.81,5.81,0,0,1,2.32,4.72,5,5,0,0,1-2.71,4.46c-1.81,1.08-4.49,1.62-8,1.62a28.34,28.34,0,0,1-11.9-2.53A38.71,38.71,0,0,1,665.88,67L649.71,83.11A46.18,46.18,0,0,0,665.82,94a55.82,55.82,0,0,0,20.5,3.43q18.24,0,28.26-7.69t10-21.8a27.69,27.69,0,0,0-2.32-11.9,24.86,24.86,0,0,0-6.15-8.21,36.23,36.23,0,0,0-8.34-5.43,83.69,83.69,0,0,0-9.12-3.69c-3.06-1-5.86-2-8.41-3a24.78,24.78,0,0,1-6.14-3.17,5.38,5.38,0,0,1-2.33-4.47A4.18,4.18,0,0,1,684.18,24.26Z"/><path class="cls-4" d="M787.08,3.83,752,95.92h26.38l5.24-15.52h32.47l5.1,15.52h26.91L813.46,3.83Zm3.37,56.39,9.63-28.57,9.4,28.57Z"/><polygon class="cls-4" points="953.8 51.21 983.8 95.92 1014.85 95.92 980.91 47.74 1013.42 3.83 982.25 3.83 953.8 44.77 953.8 3.83 927.93 3.83 927.93 95.92 953.8 95.92 953.8 51.21"/><path class="cls-4" d="M1072.66,59.19h.36l23.44,36.73h29.36l-27-38.36a34.28,34.28,0,0,0,5.1-1.87,28,28,0,0,0,11.7-9.7,25.21,25.21,0,0,0,4.2-14.48A25.58,25.58,0,0,0,1115.74,17a28,28,0,0,0-11.39-9.7,38.25,38.25,0,0,0-16.81-3.49H1046.8V95.92h25.86Zm10.74-36.74c3.53,0,6.23.87,8.08,2.59a8.9,8.9,0,0,1,2.78,6.85,8.89,8.89,0,0,1-2.78,6.86c-1.85,1.73-4.55,2.59-8.08,2.59h-10.74V22.45Z"/><polygon class="cls-4" points="1184.03 59.45 1223.74 59.45 1223.74 38.49 1184.03 38.49 1184.03 25.3 1227.74 25.3 1227.74 3.83 1184.03 3.83 1179.11 3.83 1158.16 3.83 1158.16 95.92 1179.11 95.92 1184.03 95.92 1228.52 95.92 1228.52 74.45 1184.03 74.45 1184.03 59.45"/><path class="cls-4" d="M1294.87,3.83l-35,92.09h26.39l5.23-15.52h32.47L1329,95.92h26.9L1321.26,3.83Zm3.37,56.39,9.64-28.57,9.4,28.57Z"/><polygon class="cls-4" points="1402.1 3.83 1374.55 3.83 1374.55 25.82 1402.1 25.82 1402.1 95.92 1427.97 95.92 1427.97 25.82 1455.65 25.82 1455.65 3.83 1427.97 3.83 1402.1 3.83"/><rect class="cls-4" x="1491.22" y="3.83" width="25.87" height="92.09"/><polygon class="cls-4" points="1597.84 60.23 1578.91 3.83 1551.49 3.83 1585.25 95.92 1609.82 95.92 1644.1 3.83 1617.07 3.83 1597.84 60.23"/><path class="cls-4" d="M1729.59,95.92h26.91L1721.83,3.83h-26.38l-35,92.09h26.38L1692,80.4h32.48Zm-30.77-35.7,9.63-28.57,9.4,28.57Z"/><path class="cls-4" d="M437.79,179.47a13.51,13.51,0,0,1,6.4-1.29,21.56,21.56,0,0,1,9.31,2,31.87,31.87,0,0,1,8.54,6.14l16.3-16.17a38.69,38.69,0,0,0-14.68-9.38,54.85,54.85,0,0,0-19.21-3.29,45,45,0,0,0-18.24,3.42,26.17,26.17,0,0,0-16.29,25.29,26.06,26.06,0,0,0,2.32,11.58,23.85,23.85,0,0,0,6.15,7.89,40.78,40.78,0,0,0,8.34,5.36,76.85,76.85,0,0,0,9.12,3.75q4.59,1.56,8.41,3a23.49,23.49,0,0,1,6.14,3.37,5.82,5.82,0,0,1,2.33,4.72,5,5,0,0,1-2.72,4.46q-2.72,1.62-8,1.62a28.52,28.52,0,0,1-11.9-2.52,38.78,38.78,0,0,1-10.6-7.31l-16.17,16.17a46.15,46.15,0,0,0,16.1,10.92,55.86,55.86,0,0,0,20.5,3.43q18.24,0,28.26-7.69t10-21.8a27.69,27.69,0,0,0-2.33-11.9,24.7,24.7,0,0,0-6.14-8.21,36.51,36.51,0,0,0-8.35-5.43,86.46,86.46,0,0,0-9.11-3.69q-4.61-1.54-8.41-3a24.87,24.87,0,0,1-6.15-3.17,5.35,5.35,0,0,1-2.32-4.46A4.17,4.17,0,0,1,437.79,179.47Z"/><polygon class="cls-4" points="533.96 159.04 506.41 159.04 506.41 181.03 533.96 181.03 533.96 251.13 559.82 251.13 559.82 181.03 587.5 181.03 587.5 159.04 559.82 159.04 533.96 159.04"/><path class="cls-4" d="M675.84,216.21a14.29,14.29,0,0,1-1.81,7.44,12.07,12.07,0,0,1-5,4.65,15.82,15.82,0,0,1-7.3,1.62,16.34,16.34,0,0,1-7.31-1.62,12.58,12.58,0,0,1-5.24-4.72,13.9,13.9,0,0,1-1.94-7.5V159H621.39v54.71a39.76,39.76,0,0,0,5.05,20.18,35.82,35.82,0,0,0,14.09,13.77q9.06,5,21.22,5t21.14-5a35.56,35.56,0,0,0,14-13.71,39.86,39.86,0,0,0,5-20.11V159h-26Z"/><path class="cls-4" d="M815.92,171.58a46.56,46.56,0,0,0-15.84-9.31,59.57,59.57,0,0,0-20-3.23h-38.8v92.09h39.06a58.6,58.6,0,0,0,19.79-3.23,46.53,46.53,0,0,0,15.78-9.32A41.8,41.8,0,0,0,826.33,224a50.48,50.48,0,0,0,0-37.89A41.94,41.94,0,0,0,815.92,171.58Zm-15.13,46.83a18.3,18.3,0,0,1-8.15,8.08,27.75,27.75,0,0,1-12.55,2.65H767.16V181h12.93a27.29,27.29,0,0,1,12.48,2.65,18.83,18.83,0,0,1,8.15,7.95q2.91,5.31,2.91,13.33A28.88,28.88,0,0,1,800.79,218.41Z"/><rect class="cls-4" x="866.49" y="159.04" width="25.87" height="92.09"/><path class="cls-4" d="M1014.59,170.81a47.72,47.72,0,0,0-15.85-10,58,58,0,0,0-40,0,47.72,47.72,0,0,0-15.85,10,45.59,45.59,0,0,0-10.41,15.13,50.4,50.4,0,0,0,.07,38,45.42,45.42,0,0,0,10.54,15.26A48.94,48.94,0,0,0,959,249.32a56.87,56.87,0,0,0,39.77.06,47.26,47.26,0,0,0,15.78-10.08A46.16,46.16,0,0,0,1025,224a50.81,50.81,0,0,0,0-38A45.37,45.37,0,0,0,1014.59,170.81Zm-15.13,47.47a20.7,20.7,0,0,1-8.15,8.79,24.41,24.41,0,0,1-12.55,3.11,26,26,0,0,1-9.76-1.75,20.62,20.62,0,0,1-7.44-5,21.79,21.79,0,0,1-4.72-8A31.7,31.7,0,0,1,955.22,205a29,29,0,0,1,2.85-13.26,20.31,20.31,0,0,1,8.14-8.67,24.9,24.9,0,0,1,12.55-3,25.85,25.85,0,0,1,9.77,1.75,20.67,20.67,0,0,1,7.43,5,21.92,21.92,0,0,1,4.72,7.89A30.77,30.77,0,0,1,1002.3,205,29.56,29.56,0,0,1,999.46,218.28Z"/><path class="cls-4" d="M1123.11,164,1117,181.29c-.78,2.58-1.56,5.56-2.46,8.79h-.13c-.91-3.62-1.55-6.21-2.33-8.92L1106,164h-10.47L1093,199.14h6.72l1.3-20.7c.13-3.23.26-6.6.26-9.83h.38c.78,3.11,1.82,7.24,2.46,10l6.34,20.05h7.24l6.34-19.53c1-3.24,2.07-7.37,3-10.48h.38c.13,3.75.13,7.11.26,9.83l1.3,20.7h7L1133.19,164Z"/><polygon class="cls-4" points="1061.41 169.78 1072.66 169.78 1072.66 199.14 1079.65 199.14 1079.65 169.78 1090.9 169.78 1090.9 163.96 1061.41 163.96 1061.41 169.78"/><polygon class="cls-4" points="434.81 348.25 434.22 348.25 419.36 311.97 408.26 311.97 408.26 362.04 416.96 362.04 416.96 327.56 417.43 327.56 431.26 361.89 437.77 361.89 451.6 327.64 452.07 327.64 452.07 362.04 460.77 362.04 460.77 311.97 449.67 311.97 434.81 348.25"/><path class="cls-4" d="M506.5,326.42a19.92,19.92,0,0,0-19.07,0,16.3,16.3,0,0,0-6.25,6.79,24.57,24.57,0,0,0,0,20.37,16.43,16.43,0,0,0,6.25,6.77,20,20,0,0,0,19.07,0,16.34,16.34,0,0,0,6.24-6.77,24.47,24.47,0,0,0,0-20.37A16.22,16.22,0,0,0,506.5,326.42ZM505,349.59a9.84,9.84,0,0,1-3,4.44,7.6,7.6,0,0,1-5,1.65,7.73,7.73,0,0,1-5.07-1.65,9.79,9.79,0,0,1-3-4.44,20.07,20.07,0,0,1,0-12.45,9.89,9.89,0,0,1,3-4.47A7.73,7.73,0,0,1,497,331a7.61,7.61,0,0,1,5,1.66,9.93,9.93,0,0,1,3,4.47,20.07,20.07,0,0,1,0,12.45Z"/><path class="cls-4" d="M551,324a9.68,9.68,0,0,0-5.73,1.77,9.39,9.39,0,0,0-3.53,5h-.4v-6.26h-8.58V362h8.85V340a8.08,8.08,0,0,1,1.1-4.23,7.79,7.79,0,0,1,3-2.87,8.9,8.9,0,0,1,4.34-1,17.37,17.37,0,0,1,2.34.16,9.53,9.53,0,0,1,1.77.35v-8.14a12.44,12.44,0,0,0-1.53-.18Q551.73,324,551,324Z"/><path class="cls-4" d="M597,328.54a15,15,0,0,0-5.47-3.43A19.33,19.33,0,0,0,585,324a17.47,17.47,0,0,0-9.36,2.46,16.67,16.67,0,0,0-6.2,6.85,24.72,24.72,0,0,0,0,20.41,15.79,15.79,0,0,0,6.29,6.7,19.23,19.23,0,0,0,9.75,2.36,21.34,21.34,0,0,0,7.77-1.33,14.51,14.51,0,0,0,5.59-3.77,12.79,12.79,0,0,0,3-5.71l-8.27-.93a6.9,6.9,0,0,1-1.73,2.67,7.47,7.47,0,0,1-2.72,1.62,10.35,10.35,0,0,1-3.49.55,10,10,0,0,1-5-1.23,8.45,8.45,0,0,1-3.35-3.57,12.07,12.07,0,0,1-1.19-5.39h26.15V343a23.87,23.87,0,0,0-1.36-8.52A16.26,16.26,0,0,0,597,328.54Zm-21,11.17a9.59,9.59,0,0,1,1.14-4.09,9,9,0,0,1,3.19-3.42,8.7,8.7,0,0,1,4.76-1.31,8.5,8.5,0,0,1,4.47,1.15,8,8,0,0,1,3,3.14,9.49,9.49,0,0,1,1.1,4.53Z"/><path class="cls-4" d="M662.34,321.46a13,13,0,0,1,7.24-2,14.17,14.17,0,0,1,4.29.63,11.1,11.1,0,0,1,3.55,1.84,10.82,10.82,0,0,1,2.62,3,11.55,11.55,0,0,1,1.44,4h9.14a20.73,20.73,0,0,0-2.38-7.44,18.7,18.7,0,0,0-4.63-5.53,20,20,0,0,0-6.41-3.43,24.62,24.62,0,0,0-7.77-1.18,22.67,22.67,0,0,0-11.74,3.06,21.57,21.57,0,0,0-8.19,8.81,33.55,33.55,0,0,0,0,27.69,21.3,21.3,0,0,0,8.17,8.82,22.71,22.71,0,0,0,11.78,3.06,23.64,23.64,0,0,0,8.14-1.33,20.25,20.25,0,0,0,6.41-3.72,19.88,19.88,0,0,0,4.43-5.51,19.67,19.67,0,0,0,2.21-6.7l-9.14,0a11.14,11.14,0,0,1-1.5,3.91,10.85,10.85,0,0,1-2.67,2.89,11.53,11.53,0,0,1-3.54,1.77,14.4,14.4,0,0,1-4.22.6,13.25,13.25,0,0,1-7.2-2,13.39,13.39,0,0,1-4.94-5.92,26.81,26.81,0,0,1,0-19.24A13.62,13.62,0,0,1,662.34,321.46Z"/><path class="cls-4" d="M727.13,324a9.68,9.68,0,0,0-5.73,1.77,9.39,9.39,0,0,0-3.53,5h-.39v-6.26H708.9V362h8.85V340a8,8,0,0,1,1.1-4.23,7.73,7.73,0,0,1,3-2.87,8.87,8.87,0,0,1,4.34-1,17.22,17.22,0,0,1,2.33.16,9.18,9.18,0,0,1,1.77.35v-8.14a12.2,12.2,0,0,0-1.53-.18Q727.87,324,727.13,324Z"/><path class="cls-4" d="M773.17,328.54a15.06,15.06,0,0,0-5.48-3.43,19.28,19.28,0,0,0-6.56-1.12,17.48,17.48,0,0,0-9.37,2.46,16.65,16.65,0,0,0-6.19,6.85,24.67,24.67,0,0,0,0,20.41,15.81,15.81,0,0,0,6.3,6.7,19.22,19.22,0,0,0,9.74,2.36,21.3,21.3,0,0,0,7.77-1.33,14.51,14.51,0,0,0,5.59-3.77,12.79,12.79,0,0,0,3-5.71l-8.26-.93a6.81,6.81,0,0,1-1.74,2.67,7.42,7.42,0,0,1-2.71,1.62,10.41,10.41,0,0,1-3.5.55,10,10,0,0,1-5-1.23,8.39,8.39,0,0,1-3.35-3.57,12.07,12.07,0,0,1-1.2-5.39h26.16V343a23.86,23.86,0,0,0-1.37-8.52A16.11,16.11,0,0,0,773.17,328.54Zm-21,11.17a9.74,9.74,0,0,1,1.14-4.09,9.1,9.1,0,0,1,3.19-3.42,8.71,8.71,0,0,1,4.77-1.31,8.49,8.49,0,0,1,4.46,1.15,7.93,7.93,0,0,1,3,3.14,9.61,9.61,0,0,1,1.11,4.53Z"/><path class="cls-4" d="M821.79,326.72a15.24,15.24,0,0,0-4.91-2.09,23.73,23.73,0,0,0-5.41-.64,21,21,0,0,0-7.18,1.17,14.09,14.09,0,0,0-5.5,3.47,13.26,13.26,0,0,0-3.23,5.73l8.26,1.17a7,7,0,0,1,2.56-3.35,8.41,8.41,0,0,1,5.14-1.41,6.69,6.69,0,0,1,4.72,1.51,5.55,5.55,0,0,1,1.64,4.28v.15a2.07,2.07,0,0,1-.94,1.87,7.84,7.84,0,0,1-3,.88c-1.37.19-3.15.39-5.35.62a38.66,38.66,0,0,0-5.29.94,16.3,16.3,0,0,0-4.59,1.9,9.1,9.1,0,0,0-3.2,3.32,10.64,10.64,0,0,0-1.17,5.26,11.1,11.1,0,0,0,1.65,6.21,10.36,10.36,0,0,0,4.49,3.8,15.4,15.4,0,0,0,6.42,1.28A14.43,14.43,0,0,0,812,362a10.63,10.63,0,0,0,5.91-5.09h.29V362h8.51V336.9a12.85,12.85,0,0,0-1.36-6.23A10.77,10.77,0,0,0,821.79,326.72Zm-3.89,21.84a7.26,7.26,0,0,1-1.06,3.84,7.79,7.79,0,0,1-3,2.83,9.5,9.5,0,0,1-4.62,1.06,7.78,7.78,0,0,1-4.55-1.25,4.2,4.2,0,0,1-1.78-3.69,4.26,4.26,0,0,1,.9-2.8,6.09,6.09,0,0,1,2.47-1.7,15.89,15.89,0,0,1,3.55-.88l2.07-.29q1.2-.17,2.43-.39c.81-.15,1.55-.32,2.21-.51a4.09,4.09,0,0,0,1.4-.64Z"/><path class="cls-4" d="M862.86,355a9,9,0,0,1-1.53.12,5.56,5.56,0,0,1-2-.34,2.87,2.87,0,0,1-1.46-1.28,5.57,5.57,0,0,1-.55-2.73V331.33h7.41v-6.85h-7.41v-9h-8.85v9h-5.33v6.85h5.33v20.88a10.35,10.35,0,0,0,1.53,5.86,9.14,9.14,0,0,0,4.22,3.46,14.22,14.22,0,0,0,6,1,17.12,17.12,0,0,0,3.19-.34q1.3-.3,2-.54l-1.49-6.92C863.68,354.82,863.32,354.89,862.86,355Z"/><path class="cls-4" d="M886.91,309.55a5.13,5.13,0,0,0-3.62,1.4,4.58,4.58,0,0,0,0,6.8,5.39,5.39,0,0,0,7.25,0,4.58,4.58,0,0,0,0-6.8A5.1,5.1,0,0,0,886.91,309.55Z"/><rect class="cls-4" x="882.46" y="324.48" width="8.85" height="37.55"/><polygon class="cls-4" points="926.21 352.38 925.82 352.38 917.19 324.48 907.75 324.48 921.12 362.04 930.9 362.04 944.28 324.48 934.86 324.48 926.21 352.38"/><path class="cls-4" d="M987.62,328.54a15.06,15.06,0,0,0-5.48-3.43,19.28,19.28,0,0,0-6.56-1.12,17.42,17.42,0,0,0-9.36,2.46,16.6,16.6,0,0,0-6.2,6.85,24.72,24.72,0,0,0,0,20.41,15.73,15.73,0,0,0,6.29,6.7,19.22,19.22,0,0,0,9.74,2.36,21.39,21.39,0,0,0,7.78-1.33,14.47,14.47,0,0,0,5.58-3.77,12.79,12.79,0,0,0,3-5.71l-8.26-.93a6.9,6.9,0,0,1-1.73,2.67,7.55,7.55,0,0,1-2.72,1.62,10.39,10.39,0,0,1-3.49.55,10,10,0,0,1-5-1.23,8.45,8.45,0,0,1-3.35-3.57,11.94,11.94,0,0,1-1.19-5.39h26.15V343a23.86,23.86,0,0,0-1.37-8.52A16.11,16.11,0,0,0,987.62,328.54Zm-21,11.17a9.88,9.88,0,0,1,1.14-4.09,9.1,9.1,0,0,1,3.19-3.42,8.71,8.71,0,0,1,4.77-1.31,8.46,8.46,0,0,1,4.46,1.15,8,8,0,0,1,3,3.14,9.72,9.72,0,0,1,1.1,4.53Z"/><path class="cls-4" d="M1012.94,357.93a58,58,0,0,1-.75,6.5q-.57,3.21-1.17,5.77c-.39,1.71-.71,3.06-.94,4.06h6c.39-1,.9-2.44,1.54-4.23s1.24-3.75,1.82-5.88a41.43,41.43,0,0,0,1.21-6.27l.32-2.69h-7.82Z"/><polygon class="cls-4" points="1093.98 348.25 1093.39 348.25 1078.53 311.97 1067.43 311.97 1067.43 362.04 1076.14 362.04 1076.14 327.56 1076.6 327.56 1090.44 361.89 1096.94 361.89 1110.78 327.64 1111.24 327.64 1111.24 362.04 1119.94 362.04 1119.94 311.97 1108.85 311.97 1093.98 348.25"/><path class="cls-4" d="M1165.67,326.42a19.92,19.92,0,0,0-19.07,0,16.22,16.22,0,0,0-6.24,6.79,24.47,24.47,0,0,0,0,20.37,16.34,16.34,0,0,0,6.24,6.77,20,20,0,0,0,19.07,0,16.43,16.43,0,0,0,6.25-6.77,24.57,24.57,0,0,0,0-20.37A16.3,16.3,0,0,0,1165.67,326.42Zm-1.5,23.17a9.85,9.85,0,0,1-3,4.44,7.55,7.55,0,0,1-5,1.65,7.77,7.77,0,0,1-5.08-1.65,9.85,9.85,0,0,1-3-4.44,20.07,20.07,0,0,1,0-12.45,10,10,0,0,1,3-4.47,7.78,7.78,0,0,1,5.08-1.66,7.56,7.56,0,0,1,5,1.66,10,10,0,0,1,3,4.47,20.07,20.07,0,0,1,0,12.45Z"/><path class="cls-4" d="M1210.18,324a9.69,9.69,0,0,0-5.74,1.77,9.39,9.39,0,0,0-3.53,5h-.39v-6.26h-8.58V362h8.85V340a8,8,0,0,1,1.1-4.23,7.73,7.73,0,0,1,3-2.87,8.87,8.87,0,0,1,4.34-1,17.22,17.22,0,0,1,2.33.16,9.18,9.18,0,0,1,1.77.35v-8.14a12,12,0,0,0-1.52-.18Q1210.9,324,1210.18,324Z"/><path class="cls-4" d="M1256.21,328.54a15.06,15.06,0,0,0-5.48-3.43,19.28,19.28,0,0,0-6.56-1.12,17.48,17.48,0,0,0-9.37,2.46,16.65,16.65,0,0,0-6.19,6.85,24.67,24.67,0,0,0,0,20.41,15.81,15.81,0,0,0,6.3,6.7,19.22,19.22,0,0,0,9.74,2.36,21.39,21.39,0,0,0,7.78-1.33,14.55,14.55,0,0,0,5.58-3.77,12.79,12.79,0,0,0,3-5.71l-8.26-.93a6.81,6.81,0,0,1-1.74,2.67,7.42,7.42,0,0,1-2.71,1.62,10.41,10.41,0,0,1-3.5.55,10,10,0,0,1-5-1.23,8.39,8.39,0,0,1-3.35-3.57,11.94,11.94,0,0,1-1.19-5.39h26.15V343a23.86,23.86,0,0,0-1.37-8.52A16.11,16.11,0,0,0,1256.21,328.54Zm-21,11.17a9.88,9.88,0,0,1,1.14-4.09,9.1,9.1,0,0,1,3.19-3.42,8.71,8.71,0,0,1,4.77-1.31,8.49,8.49,0,0,1,4.46,1.15,8,8,0,0,1,3,3.14,9.72,9.72,0,0,1,1.1,4.53Z"/><path class="cls-4" d="M1321.32,312,1303.69,362h9.68l4.14-12.35h18.83l4.15,12.35h9.68L1332.52,312ZM1320,342.4l6.76-20.17h.39l6.78,20.17Z"/><path class="cls-4" d="M1390.64,346.24a8.84,8.84,0,0,1-1.19,4.76,7.84,7.84,0,0,1-3,2.85,8.19,8.19,0,0,1-3.79.95,6.67,6.67,0,0,1-5.13-2.1,8,8,0,0,1-2-5.68V324.48h-8.85v23.91a17,17,0,0,0,1.59,7.67,11.27,11.27,0,0,0,4.41,4.81,12.71,12.71,0,0,0,6.52,1.65,12.22,12.22,0,0,0,7.13-2,11.29,11.29,0,0,0,4.16-5.16h.39V362h8.59V324.48h-8.85Z"/><path class="cls-4" d="M1435.79,355a9.13,9.13,0,0,1-1.53.12,5.56,5.56,0,0,1-2-.34,2.87,2.87,0,0,1-1.46-1.28,5.46,5.46,0,0,1-.55-2.73V331.33h7.41v-6.85h-7.41v-9h-8.85v9h-5.33v6.85h5.33v20.88a10.19,10.19,0,0,0,1.53,5.86,9.09,9.09,0,0,0,4.22,3.46,14.22,14.22,0,0,0,6,1,17.22,17.22,0,0,0,3.19-.34q1.31-.3,2-.54l-1.49-6.92C1436.61,354.82,1436.25,354.89,1435.79,355Z"/><path class="cls-4" d="M1483.26,325.63a13.69,13.69,0,0,0-6.82-1.64,12.54,12.54,0,0,0-7.08,1.85,10.93,10.93,0,0,0-4.09,5h-.44V312h-8.66V362H1465V340a9.56,9.56,0,0,1,1-4.62,7.19,7.19,0,0,1,2.89-2.92,8.49,8.49,0,0,1,4.19-1,7,7,0,0,1,5.44,2.11,8.43,8.43,0,0,1,1.94,5.9V362h8.85V338.13a16.87,16.87,0,0,0-1.6-7.71A11.18,11.18,0,0,0,1483.26,325.63Z"/><path class="cls-4" d="M1536.9,328.54a15.06,15.06,0,0,0-5.48-3.43,19.28,19.28,0,0,0-6.56-1.12,17.48,17.48,0,0,0-9.37,2.46,16.67,16.67,0,0,0-6.2,6.85,24.72,24.72,0,0,0,0,20.41,15.81,15.81,0,0,0,6.3,6.7,19.2,19.2,0,0,0,9.74,2.36,21.3,21.3,0,0,0,7.77-1.33,14.51,14.51,0,0,0,5.59-3.77,12.79,12.79,0,0,0,3-5.71l-8.26-.93a6.81,6.81,0,0,1-1.74,2.67,7.42,7.42,0,0,1-2.71,1.62,10.45,10.45,0,0,1-3.5.55,10,10,0,0,1-5-1.23,8.33,8.33,0,0,1-3.35-3.57,11.94,11.94,0,0,1-1.2-5.39H1542V343a23.86,23.86,0,0,0-1.37-8.52A16.25,16.25,0,0,0,1536.9,328.54Zm-21,11.17a9.59,9.59,0,0,1,1.14-4.09,9.1,9.1,0,0,1,3.19-3.42,8.71,8.71,0,0,1,4.77-1.31,8.49,8.49,0,0,1,4.46,1.15,7.93,7.93,0,0,1,3,3.14,9.49,9.49,0,0,1,1.1,4.53Z"/><path class="cls-4" d="M1586.71,325.66a13.43,13.43,0,0,0-6.79-1.67,12.63,12.63,0,0,0-7.05,1.86,10.77,10.77,0,0,0-4.15,5h-.44v-6.38h-8.46V362h8.86V340a9.67,9.67,0,0,1,1-4.62,7.13,7.13,0,0,1,2.81-2.92,8.2,8.2,0,0,1,4.12-1,6.91,6.91,0,0,1,5.37,2.12,8.45,8.45,0,0,1,1.94,5.89V362h8.85V338.13a16.52,16.52,0,0,0-1.58-7.66A11.25,11.25,0,0,0,1586.71,325.66Z"/><path class="cls-4" d="M1629,355a9.13,9.13,0,0,1-1.53.12,5.56,5.56,0,0,1-2-.34,2.87,2.87,0,0,1-1.46-1.28,5.46,5.46,0,0,1-.55-2.73V331.33h7.41v-6.85h-7.41v-9h-8.85v9h-5.33v6.85h5.33v20.88a10.19,10.19,0,0,0,1.53,5.86,9.09,9.09,0,0,0,4.22,3.46,14.22,14.22,0,0,0,6,1,17.22,17.22,0,0,0,3.19-.34q1.31-.3,2-.54l-1.49-6.92C1629.83,354.82,1629.47,354.89,1629,355Z"/><rect class="cls-4" x="1648.61" y="324.48" width="8.85" height="37.55"/><path class="cls-4" d="M1653.06,309.55a5.13,5.13,0,0,0-3.62,1.4,4.58,4.58,0,0,0,0,6.8,5.39,5.39,0,0,0,7.25,0,4.58,4.58,0,0,0,0-6.8A5.1,5.1,0,0,0,1653.06,309.55Z"/><path class="cls-4" d="M1699.45,352.65a7,7,0,0,1-2.61,2.16,7.92,7.92,0,0,1-3.5.75,8,8,0,0,1-4.81-1.48,9.54,9.54,0,0,1-3.16-4.23,17.4,17.4,0,0,1-1.13-6.59,16.72,16.72,0,0,1,1.14-6.5,9.41,9.41,0,0,1,3.19-4.17,8,8,0,0,1,4.77-1.46,7.12,7.12,0,0,1,5.12,1.83,8.13,8.13,0,0,1,2.43,4.53h8.46a13.73,13.73,0,0,0-8-11.82,18.69,18.69,0,0,0-8.11-1.68,17.9,17.9,0,0,0-9.52,2.46,16.52,16.52,0,0,0-6.22,6.85,22.19,22.19,0,0,0-2.2,10.11,22.42,22.42,0,0,0,2.16,10.06,16.44,16.44,0,0,0,6.19,6.83,18,18,0,0,0,9.64,2.47,18.51,18.51,0,0,0,8.22-1.72,13.74,13.74,0,0,0,5.52-4.8,14.54,14.54,0,0,0,2.35-7.05h-8.46A8.41,8.41,0,0,1,1699.45,352.65Z"/></g></g></svg>