<svg xmlns="http://www.w3.org/2000/svg" viewBox="0 0 103.53 32.45"><defs><style>.cls-1{fill:#fff;}</style></defs><title>bca-white</title><g id="Layer_2" data-name="Layer 2"><g id="Layer_1-2" data-name="Layer 1"><path id="path20" class="cls-1" d="M15.26,24.63c0-1.29,0-4.75,0-5.18,0-5.14-3.71-8.77-6.08-8.49a4,4,0,0,0-3.74,2.73,3.43,3.43,0,0,0,2.2,4.72,15,15,0,0,1,4.86,1.8,5.54,5.54,0,0,1,2.31,4.42"/><path id="path22" class="cls-1" d="M16.22,32.45a30.45,30.45,0,0,1-13-3.14l-.11,0L3,29.15A30.93,30.93,0,0,1,0,16,30,30,0,0,1,3,3.06L3,3l.11-.05a30,30,0,0,1,13-2.9A30.87,30.87,0,0,1,29.22,3.14l.11,0,.05.11a30.91,30.91,0,0,1,3.06,13.15,30,30,0,0,1-3,12.94l-.05.11-.12.05a30.49,30.49,0,0,1-13,2.9M3.57,28.74a29.65,29.65,0,0,0,12.65,3A29.89,29.89,0,0,0,28.85,29a29.24,29.24,0,0,0,2.91-12.53,30.23,30.23,0,0,0-3-12.74,30.14,30.14,0,0,0-12.7-3A29.28,29.28,0,0,0,3.54,3.47,29.25,29.25,0,0,0,.69,16,30.36,30.36,0,0,0,3.57,28.74"/><path id="path24" class="cls-1" d="M14.24,24.63a4.73,4.73,0,0,0-2.12-3.91A16.51,16.51,0,0,0,7.28,19a2.62,2.62,0,0,1-1.7-1.12A3.85,3.85,0,0,0,5,20.69a3.24,3.24,0,0,0,2.88,2.56,13.06,13.06,0,0,0,2.91-.35,2.65,2.65,0,0,1,3,1.73"/><path id="path26" class="cls-1" d="M16.11,3A4.94,4.94,0,0,0,10.88,8c0,2.7,2.18,4.14,2.95,5.17A10,10,0,0,1,15.7,19.4c.05,2.24.05,4.45.06,5.23h.62c0-.82,0-3.17,0-5.3a9.69,9.69,0,0,1,1.86-6.15c.79-1,3-2.47,3-5.17A4.94,4.94,0,0,0,16,3"/><path id="path28" class="cls-1" d="M16.83,24.63c0-1.29,0-4.75,0-5.18,0-5.14,3.71-8.77,6.08-8.49a4,4,0,0,1,3.74,2.73,3.43,3.43,0,0,1-2.2,4.72,15,15,0,0,0-4.86,1.8,5.49,5.49,0,0,0-2.24,4.42"/><path id="path30" class="cls-1" d="M17.84,24.63A4.71,4.71,0,0,1,20,20.72,16.51,16.51,0,0,1,24.8,19a2.62,2.62,0,0,0,1.7-1.12,3.85,3.85,0,0,1,.62,2.83,3.25,3.25,0,0,1-2.88,2.56,13.06,13.06,0,0,1-2.91-.35,2.67,2.67,0,0,0-3,1.73"/><path id="path32" class="cls-1" d="M18.71,30l-.36-2.62.86-.13a.65.65,0,0,1,.58.14.78.78,0,0,1,.17.43.58.58,0,0,1-.29.61h0c.28,0,.45.2.5.55a1.55,1.55,0,0,1,0,.39c-.06.34-.26.46-.61.51Zm.55-.47a.65.65,0,0,0,.29-.07c.13-.08.12-.26.1-.39,0-.28-.12-.39-.42-.34l-.19,0,.12.8Zm-.18-1.21c.12,0,.27,0,.34-.14a.42.42,0,0,0,0-.3c0-.19-.1-.31-.35-.26l-.22,0,.09.67"/><path id="path34" class="cls-1" d="M22.47,28.4c0,.05,0,.11,0,.16.07.47,0,.87-.55,1-.8.15-.95-.34-1.09-1l-.07-.38c-.11-.66-.16-1.16.62-1.32a.66.66,0,0,1,.84.53,1.46,1.46,0,0,1,.05.2l-.47.1c-.06-.17-.13-.46-.35-.43-.38,0-.25.52-.21.72l.14.72c0,.22.13.56.46.5s.15-.48.13-.65"/><path id="path36" class="cls-1" d="M23.23,29.2l-.16-2.72.64-.19,1.34,2.36-.51.15-.31-.6-.56.17.07.68Zm.39-1.27.4-.12-.53-1.1"/><path id="path38" class="cls-1" d="M7.44,27.14c.2-.64.38-1.11,1.14-.9.41.11.66.3.65.77a1.8,1.8,0,0,1-.06.32L8.7,27.2c.06-.27.1-.47-.23-.57S8,27,8,27.17l-.2.71c-.06.22-.13.57.2.66s.43-.2.53-.59l-.33-.08.12-.42.78.25-.37,1.38L8.33,29l.08-.29h0a.51.51,0,0,1-.55.23c-.78-.21-.7-.72-.51-1.41"/><path id="path40" class="cls-1" d="M10.35,28.3l-.24,1.12-.53-.11.57-2.61.9.2c.53.12.69.35.61.84,0,.27-.18.57-.51.55h0c.28.09.3.24.25.48s-.16.75-.06.85v.08l-.55-.15a3.17,3.17,0,0,1,.09-.67c0-.15.08-.37-.08-.45a.81.81,0,0,0-.31-.1Zm.09-.4.35.1c.22,0,.34-.09.38-.35s0-.33-.2-.38l-.38-.08"/><path id="path42" class="cls-1" d="M13.75,27.28l.52.06-.22,1.83c-.11.59-.34.84-1,.76s-.8-.38-.76-1l.22-1.84.53.06L12.84,29c0,.19-.07.48.27.51s.38-.18.41-.43"/><path id="path44" class="cls-1" d="M14.85,30,15,27.41l1,0c.48,0,.6.41.59.79a.77.77,0,0,1-.28.61.85.85,0,0,1-.56.13h-.33l-.07,1.09Zm.6-1.46h.26c.22,0,.36-.08.38-.4s-.1-.35-.38-.37h-.22"/><path id="path46" class="cls-1" d="M85.88,5.48l-4,7.27a8.82,8.82,0,0,0-5.71-2.13c-5.57,0-7.83,4.15-7.83,7.07,0,2.17,1.42,5.38,6.37,5.38A12.59,12.59,0,0,0,80.6,21l-4,8.43a20.42,20.42,0,0,1-4.1.66c-8.87.27-12.46-5.18-12.45-10.75C60.09,11.94,66.64,3,77.49,3a6.72,6.72,0,0,1,2.17.49l.7-.9"/><path id="path48" class="cls-1" d="M102.4,2.8l1.13,26.4H95.1V24.67H89.34L87.45,29.2H78.3l9.56-18.85-2.15,0L89.8,2.8ZM95,10.87l-3.26,7.69h3.35"/><path id="path50" class="cls-1" d="M54.76,2.8c4.18,0,6.54,2.29,6.54,5.56,0,3-2.49,5.7-5.22,7.08,2.81,1,3.05,3.57,3.05,5.37,0,4.34-4.35,8.39-10,8.39H36.77l4.82-18.59h-2l4-7.8s7.7,0,11.1,0m-4.1,10.7a2.55,2.55,0,0,0,2.77-1.89c.42-1.81-1-1.86-1.7-1.86H49.28l-.86,3.76Zm-3.47,4.67-1.13,4.34H49a3.08,3.08,0,0,0,3.07-2,1.84,1.84,0,0,0-1.84-2.36"/></g></g></svg>