<svg xmlns="http://www.w3.org/2000/svg" viewBox="0 0 110.69 44.56"><defs><style>.cls-1{fill:#fff;}.cls-2{fill:#949698;}</style></defs><title>btn-white</title><g id="Layer_2" data-name="Layer 2"><g id="Layer_1-2" data-name="Layer 1"><path id="path52" class="cls-1" d="M48.79,10.05h3.76c1.31,0,2.27.27,2.27,1.7s-1.46,1.9-2.63,1.9H48.06ZM37.9,28.14H51.56c5.2,0,9.8-2.27,9.8-8a4.79,4.79,0,0,0-3.6-4.77V15.3h0a5.44,5.44,0,0,0,4.37-5.73c0-3.44-1.93-5.24-7.1-5.24H42.84Zm9.25-10h4c1.54,0,2.85.26,2.85,2,0,1.93-1.8,2.39-3.11,2.39h-4.7Z"/><path id="path56" class="cls-1" d="M67.61,28.14h7.33l3.67-17.71h6.6l1.27-6.1H65.94l-1.26,6.1h6.6Z"/><path id="path60" class="cls-1" d="M84.14,28.14h7L93.88,14.8h.06l4.37,13.34h7.2l5-23.81h-7l-2.66,13h-.07l-4.47-13H89.07Z"/><path id="path72" class="cls-1" d="M35.19,44.56c.22-.81.13-.8.67-3a7.73,7.73,0,0,1,6.94-5.79c1.43-.17,56.19-2.5,67.89-3.32l-.35,2c-11,1.43-60.91,8.19-75.15,10.08"/><path id="path76" class="cls-2" d="M11.25,28.14v4.33L15,30.3l3.75,2.17V28.14L15,26Z"/><path id="path80" class="cls-2" d="M26.24,28.14V23.81L15,17.31,3.75,23.81v4.33L15,21.64Z"/><path id="path84" class="cls-1" d="M0,8.66,15,0,30,8.66V26l-3.75,2.17V10.83L15,4.33,3.75,10.83V28.14L0,26Z"/><path id="path88" class="cls-1" d="M15,8.66,22.49,13V30.3l-3.74,2.16V15.15L15,13l-3.74,2.16V32.46L7.5,30.3V13Z"/></g></g></svg>