<svg xmlns="http://www.w3.org/2000/svg" viewBox="0 0 109.69 32"><defs><style>.cls-1{fill:#3b88c8;}.cls-2{fill:#fff;}</style></defs><title>dana-color</title><g id="Layer_2" data-name="Layer 2"><g id="Layer_1-2" data-name="Layer 1"><path class="cls-1" d="M76.5,19.07V14.85A6.81,6.81,0,0,1,90,13.73,8.93,8.93,0,0,1,90.13,15c0,2.92,0,5.83,0,8.75,0,.31-.09.4-.4.39-.89,0-1.78,0-2.66,0-.31,0-.38-.08-.38-.38,0-2.94,0-5.88,0-8.83a3.4,3.4,0,1,0-6.79,0c0,1.64,0,3.29,0,4.93,0,1.31,0,2.63,0,3.94,0,.32-.1.4-.4.39q-1.34,0-2.67,0c-.3,0-.37-.09-.37-.38C76.51,22.2,76.5,20.63,76.5,19.07Z"/><path class="cls-1" d="M29.65,8.58A15.59,15.59,0,0,0,7.38,2.43,16.19,16.19,0,0,0,2.14,24.06,15.67,15.67,0,0,0,19,31.64,16,16,0,0,0,31.44,16,16.29,16.29,0,0,0,29.65,8.58Zm-4.76,7.47v4.3c0,.55-.06.58-.52.31a7.28,7.28,0,0,0-5.84-.56c-1.74.46-3.4,1.16-5.13,1.68A8.18,8.18,0,0,1,8.48,22a6.6,6.6,0,0,1-1.41-.63,1,1,0,0,1-.53-.87V12.52q0-.43,0-.87c0-.37.12-.43.44-.22a6,6,0,0,0,3.28,1.07,10.94,10.94,0,0,0,3.94-.83c1.63-.6,3.24-1.3,4.93-1.75a6.18,6.18,0,0,1,5.14.75,1.19,1.19,0,0,1,.6,1.09C24.88,13.19,24.89,14.62,24.89,16.05Z"/><path class="cls-1" d="M109.69,14.85A6.93,6.93,0,0,0,102.15,8a6.8,6.8,0,0,0-6.06,6.35c-.09,1.54,0,3.1,0,4.65h0c0,1.59,0,3.18,0,4.77,0,.29.07.39.37.38.9,0,1.8,0,2.71,0,.28,0,.35-.09.35-.36,0-.93,0-1.86,0-2.78,0-.26.08-.35.34-.35,2,0,4.11,0,6.16,0,.25,0,.31.08.31.32,0,.93,0,1.86,0,2.79,0,.28,0,.39.36.38.9,0,1.81,0,2.71,0,.31,0,.36-.09.36-.38C109.68,20.79,109.69,17.82,109.69,14.85ZM106,17.19h-3.1c-1,0-2,0-3,0-.31,0-.39-.09-.38-.38,0-.74,0-1.49,0-2.22A3.36,3.36,0,0,1,103,11.46a3.41,3.41,0,0,1,3.29,3.24c0,.74,0,1.48,0,2.22C106.28,17.19,106.14,17.19,106,17.19Z"/><path class="cls-1" d="M70.56,19.09V14.91a6.31,6.31,0,0,0-.08-1.06A6.8,6.8,0,0,0,57,14.54c-.07,3.1,0,6.21,0,9.31,0,.23.08.29.3.29.94,0,1.88,0,2.82,0,.25,0,.32-.08.31-.32,0-.94,0-1.88,0-2.83,0-.25.07-.34.33-.34q3.07,0,6.13,0c.29,0,.35.11.34.37,0,.93,0,1.86,0,2.78,0,.27.08.34.34.34.91,0,1.83,0,2.74,0,.29,0,.36-.08.35-.36C70.55,22.22,70.56,20.65,70.56,19.09Zm-3.74-1.9H63.76c-1,0-2,0-3.06,0-.29,0-.37-.08-.36-.36a17.25,17.25,0,0,1,.1-2.69,3.38,3.38,0,0,1,6.68.55c0,.73,0,1.46,0,2.19C67.15,17.13,67.06,17.19,66.82,17.19Z"/><path class="cls-1" d="M43.09,8c-1.78,0-3.55,0-5.33,0-.35,0-.4.11-.4.42q0,3.84,0,7.68t0,7.71c0,.3.08.37.38.37h5.4A7.71,7.71,0,0,0,44.49,24,8,8,0,0,0,51,16.57,8,8,0,0,0,43.09,8Zm4.45,8.75a4.53,4.53,0,0,1-4.42,3.92c-.67,0-1.35,0-2,0-.24,0-.31-.07-.31-.32,0-1.43,0-2.86,0-4.29s0-2.78,0-4.18c0-.34.1-.42.42-.4a14.83,14.83,0,0,1,3,.17A4.58,4.58,0,0,1,47.54,16.71Z"/><path class="cls-2" d="M7.07,21.34A6.83,6.83,0,0,0,8.48,22a8.22,8.22,0,0,0,4.93-.19c1.72-.52,3.38-1.22,5.12-1.68a7.28,7.28,0,0,1,5.84.56c.46.27.52.24.52-.31,0-1.43,0-2.87,0-4.3s0-2.86,0-4.29a1.2,1.2,0,0,0-.59-1.09,6.2,6.2,0,0,0-5.15-.75c-1.69.45-3.29,1.15-4.93,1.75a10.9,10.9,0,0,1-3.94.83A6,6,0,0,1,7,11.43c-.32-.21-.42-.15-.44.22s0,.58,0,.87v7.16c0,.26,0,.53,0,.79A.94.94,0,0,0,7.07,21.34Z"/></g></g></svg>