<svg xmlns="http://www.w3.org/2000/svg" viewBox="0 0 103.53 23.88"><defs><style>.cls-1{fill:#00afd9;}.cls-2{fill:#fff;}.cls-3{fill:#1c1718;}</style></defs><title>gopay-color</title><g id="Layer_2" data-name="Layer 2"><g id="Layer_1-2" data-name="Layer 1"><g id="_1443026684752" data-name=" 1443026684752"><circle class="cls-1" cx="11.94" cy="11.94" r="11.94"/><path class="cls-2" d="M5,14.62a3.64,3.64,0,0,0,3.63,3.59c2.18.09,4.32.09,6.5,0a3.84,3.84,0,0,0,3.63-3.59,23.13,23.13,0,0,0,.09-3h0a3.12,3.12,0,0,0-3-2.81H8.26a.51.51,0,0,1-.5-.5h0a.47.47,0,0,1,.5-.45h7.68c-.09-1.82-2.09-2.18-3-2.23h-.5a33.18,33.18,0,0,0-3.73.09A3.61,3.61,0,0,0,5,9.31,33.62,33.62,0,0,0,5,14.62Zm11.49-1v.68a.43.43,0,0,1-.46.41h0a.41.41,0,0,1-.4-.41v-.68A.66.66,0,0,1,15.3,13a.78.78,0,0,1,1.55,0A.72.72,0,0,1,16.53,13.58Z"/></g><path class="cls-3" d="M81,4.18c-2.69.27-4.9,1.49-5.64,4.26l2.77.69c.92-2.5,4.18-3.23,5.55-1.41.36.45.22,1-.33,1.27-.81.41-2.35.27-4,.73-6.71,1.81-4.58,8,1,7.8a6.26,6.26,0,0,0,4-1.68V17.2H87.1V8.76C87.1,5.45,83.86,3.91,81,4.18ZM84.09,13a4.23,4.23,0,0,1-3.3,1.76c-2.55.37-2.55-1.22-2.37-1.63s.76-1,2.91-1.32,2.76-1,2.76-1ZM38.27,4.58V5.94a6.32,6.32,0,0,0-4.16-1.53A6.52,6.52,0,0,0,27.65,11a6.54,6.54,0,0,0,6.46,6.63,6.24,6.24,0,0,0,4.16-1.55V17.3a3.35,3.35,0,0,1-3.35,3.49,4.85,4.85,0,0,1-4.05-1.58l-2.26,2.05A7.8,7.8,0,0,0,35,23.88a6.58,6.58,0,0,0,6.85-6.95V4.58Zm-3.62,10a3.66,3.66,0,1,1,3.62-3.64A3.64,3.64,0,0,1,34.65,14.58ZM99.8,4.36l-3.72,8.13L91.81,4.36H88l6.19,11.58-3.29,6.71h3.78l8.81-18.29Zm-32.37,0a6.54,6.54,0,0,0-4.18,1.53V4.58h-3.5V22.65h3.5V16.07a6.45,6.45,0,0,0,4.18,1.55A6.54,6.54,0,0,0,73.88,11,6.53,6.53,0,0,0,67.43,4.41Zm-.55,10.17a3.66,3.66,0,1,1,3.69-3.64A3.64,3.64,0,0,1,66.88,14.58ZM50.4,4.13A7,7,0,0,0,43.32,11a7.08,7.08,0,0,0,14.16,0A7,7,0,0,0,50.4,4.13Zm0,10.72A3.9,3.9,0,0,1,46.46,11a4,4,0,0,1,7.94,0A3.92,3.92,0,0,1,50.4,14.85Z"/></g></g></svg>