<svg xmlns="http://www.w3.org/2000/svg" viewBox="0 0 103.53 33.34"><defs><style>.cls-1{fill:#fbaf28;}.cls-2{fill:#010101;}</style></defs><title>jago-dark</title><g id="Layer_2" data-name="Layer 2"><g id="Layer_1-2" data-name="Layer 1"><path class="cls-1" d="M17.73.07a3.47,3.47,0,0,0-3.68,1.7,3.93,3.93,0,0,0-.39,1A3.6,3.6,0,0,0,11,.07a3.47,3.47,0,0,0-3.68,1.7,3.9,3.9,0,0,0-.38,1A3.61,3.61,0,0,0,4.18.07,3.46,3.46,0,0,0,.5,1.77,3.82,3.82,0,0,0,.79,6,3.44,3.44,0,0,0,4.68,7.1,3.65,3.65,0,0,0,6.89,4.56,3.66,3.66,0,0,0,7.57,6,3.44,3.44,0,0,0,11.46,7.1a3.65,3.65,0,0,0,2.21-2.54A3.66,3.66,0,0,0,14.35,6,3.44,3.44,0,0,0,18.24,7.1a3.69,3.69,0,0,0,2.31-3.44A3.65,3.65,0,0,0,17.73.07Z"/><path class="cls-1" d="M6.55,17.84A4.4,4.4,0,0,0,9.4,21.37a3.48,3.48,0,0,0,4-1.69,5.48,5.48,0,0,0,.4-2.78v-4a5.44,5.44,0,0,1,.41-2.59,3.22,3.22,0,0,1,5.88.29,6.37,6.37,0,0,1,.28,2.5v2.09a24.76,24.76,0,0,1-.19,4.56,10.75,10.75,0,0,1-6,7.8,9.78,9.78,0,0,1-9.52-.95,10,10,0,0,1-3.24-3.85,8.94,8.94,0,0,1-.9-5.14A3.14,3.14,0,0,1,2.87,15,3,3,0,0,1,6.1,16.5,4.81,4.81,0,0,1,6.55,17.84Z"/><path class="cls-2" d="M103.53,17.61a8.23,8.23,0,1,1-16.45,0,8.23,8.23,0,1,1,16.45,0Zm-12.21,0a4,4,0,1,0,7.94,0,4.11,4.11,0,0,0-4-4.41C93,13.23,91.32,15.08,91.32,17.64Z"/><path class="cls-2" d="M37.34,20.76a4.31,4.31,0,0,0,2.46.88A2.86,2.86,0,0,0,42,20.33,4.05,4.05,0,0,0,42.48,18V6.35a4,4,0,0,1,.15-1.42,2.07,2.07,0,0,1,3.3-.84,2.45,2.45,0,0,1,.74,2c0,1.5,0,11.9,0,12.93a7.79,7.79,0,0,1-2.18,5,7,7,0,0,1-5,2.09,6.17,6.17,0,0,1-4.79-2.15,2.32,2.32,0,0,1-.55-2,2,2,0,0,1,1.44-1.49A2.21,2.21,0,0,1,37.34,20.76Z"/><path class="cls-2" d="M66.33,22.1h0a2.33,2.33,0,0,1-1-1.91V11.44a2.09,2.09,0,0,0-4.16-.3,6,6,0,0,0-4.57-1.89c-4.31,0-7.44,3.53-7.44,8.39S52.24,26,56.55,26h.12a7,7,0,0,0,5.16-2.19,4.6,4.6,0,0,0,3,2.13,2.31,2.31,0,0,0,.37,0h.05a2.06,2.06,0,0,0,2-2.1A2.12,2.12,0,0,0,66.33,22.1Zm-9-.06c-2.32,0-4-1.84-4-4.4s1.67-4.44,4-4.44S61.2,15,61.2,17.64,59.65,22,57.32,22Z"/><path class="cls-2" d="M84.8,11.45a2.05,2.05,0,1,0-4.1-.19,5.92,5.92,0,0,0-4.67-2c-4.31,0-7.44,3.53-7.44,8.39S71.72,26,76,26a5.82,5.82,0,0,0,4.58-1.94v.52C80.6,27.22,79,29,76.74,29a3.77,3.77,0,0,1-3.25-1.75,2,2,0,0,0-2.9-.61,2.25,2.25,0,0,0-.58,3,8.37,8.37,0,0,0,1.44,1.7,7.79,7.79,0,0,0,5.29,2c4.62,0,8-3.61,8.05-8.6v-.95h0V11.45ZM76.8,22c-2.32,0-4-1.84-4-4.4s1.68-4.44,4-4.44,3.87,1.82,3.87,4.44S79.12,22,76.8,22Z"/></g></g></svg>