<svg xmlns="http://www.w3.org/2000/svg" xmlns:xlink="http://www.w3.org/1999/xlink" viewBox="0 0 110.66 26.93"><defs><style>.cls-1{fill:none;}.cls-2{clip-path:url(#clip-path);}.cls-3{fill:#655ba8;}.cls-4{fill:#635aa7;}.cls-5{fill:#5b4ea1;}.cls-6{fill:#5c50a2;}.cls-7{fill:#655ca8;}.cls-8{fill:#5e53a3;}.cls-9{fill:#6257a5;}.cls-10{fill:#5c52a3;}.cls-11{fill:#5b50a1;}.cls-12{fill:#5c52a2;}.cls-13{fill:#6156a5;}.cls-14{fill:#5f53a3;}.cls-15{fill:#fff;}.cls-16{fill:#6359a6;}.cls-17{fill:#5f54a4;}.cls-18{fill:#6055a4;}</style><clipPath id="clip-path" transform="translate(-0.03 -0.03)"><circle class="cls-1" cx="13.49" cy="13.49" r="13.49"/></clipPath></defs><title>ovo-color</title><g id="Layer_2" data-name="Layer 2"><g id="Layer_1-2" data-name="Layer 1"><g class="cls-2"><path class="cls-3" d="M27,1.61V4.19a3.06,3.06,0,0,0-.8.08c-.25-.23-.53-.13-.81-.08h-.11a3.43,3.43,0,0,0-1.56.07.55.55,0,0,1-.36,0,1.39,1.39,0,0,0-1.09-.09,3,3,0,0,1-.9,0,7.45,7.45,0,0,0-1.25,0,.3.3,0,0,1-.13,0,1.58,1.58,0,0,0-1,.06c-.17,0-.32,0-.48-.1s-.14-.06-.22,0a.71.71,0,0,1-.41,0,2.75,2.75,0,0,0-.76,0,1.79,1.79,0,0,1-.86,0,1.25,1.25,0,0,0-.74,0,2.27,2.27,0,0,1-.52,0c-.46,0-.92,0-1.37.09a.49.49,0,0,1-.21,0,.39.39,0,0,0-.44,0,.29.29,0,0,1-.32,0,.39.39,0,0,0-.4-.07,1.35,1.35,0,0,1-.63,0,2.19,2.19,0,0,0-.8,0,3.21,3.21,0,0,0-.62.1.3.3,0,0,1-.26,0,1.48,1.48,0,0,0-1.11-.09,2.9,2.9,0,0,1-.93,0,9.61,9.61,0,0,0-1.2,0,.28.28,0,0,1-.18,0,1.1,1.1,0,0,0-.8,0,.89.89,0,0,1-.68,0,.28.28,0,0,0-.25,0,.22.22,0,0,1-.17,0c-.27-.11-.53,0-.8,0a.28.28,0,0,0-.18,0,.7.7,0,0,1-.51.06,5.66,5.66,0,0,0-1.79-.08c-.32,0-.65.06-1,0-.1,0-.19,0-.26-.08V1.61c.28-.2.53-.4.93-.25a1.35,1.35,0,0,0,.82,0,3,3,0,0,1,.52,0,3.92,3.92,0,0,1,1.08.06A1.58,1.58,0,0,0,4,1.34a.65.65,0,0,1,.53,0h0c.27-.21.56-.09.82,0a3.59,3.59,0,0,0,1.18,0,9.84,9.84,0,0,0,1.33,0,.39.39,0,0,1,.26,0,.39.39,0,0,0,.44,0,.12.12,0,0,1,.1,0,2.45,2.45,0,0,0,.81,0c.68-.06,1.35.13,2,.1,0,0,.1,0,.13,0,.27-.2.56-.06.84,0a8.45,8.45,0,0,1,1.12.09.11.11,0,0,0,.1,0c.3-.27.63-.06.95,0a1.85,1.85,0,0,0,.47,0c.22,0,.45,0,.67,0a3.48,3.48,0,0,1,1,.06,1.87,1.87,0,0,0,.65-.08.58.58,0,0,1,.48,0,.09.09,0,0,0,.07,0c.4-.24.77,0,1.15,0a.61.61,0,0,0,.19,0,7.39,7.39,0,0,1,1.63,0,2.12,2.12,0,0,1,.83,0c.05,0,.11,0,.16-.06s.12-.07.17-.05a1.71,1.71,0,0,0,.87,0c.66-.05,1.31.15,2,.1a.2.2,0,0,0,.11,0c.31-.19.62,0,.94,0a2.16,2.16,0,0,0,.44,0A.48.48,0,0,1,27,1.61Z" transform="translate(-0.03 -0.03)"/><path class="cls-4" d="M0,4.13a3.78,3.78,0,0,1,.67,0,5.07,5.07,0,0,1,.68,0,4.33,4.33,0,0,1,1.39,0,1,1,0,0,0,.81,0c.11,0,.28,0,.31,0,.25-.15.52.07.7,0a.5.5,0,0,1,.55,0c.25.14.48-.07.73-.06C6,4,6.05,4,6.12,4A12,12,0,0,0,7.92,4,2.87,2.87,0,0,0,9,4a1,1,0,0,1,.89.11c.21.15.46,0,.68-.05S11,4,11.16,4a.42.42,0,0,0,.25-.06c.06,0,.14-.08.19,0,.15.22.35.12.54.08s.38-.11.55.11.23,0,.31-.08.22-.15.32,0a.07.07,0,0,0,.08.05c.3,0,.6,0,.9,0a2.89,2.89,0,0,1,.83,0,.57.57,0,0,0,.26,0,1.51,1.51,0,0,1,.87.06,1.08,1.08,0,0,0,.77,0c.1,0,.2-.08.3,0s.06,0,.07,0c.25-.28.63.18.87-.14,0,0,.08,0,.1,0,.29.31.63.13.94.08a.92.92,0,0,1,.52,0,2.55,2.55,0,0,0,.78,0,8.77,8.77,0,0,1,1,0c.49.07.93-.14,1.4-.08,0,0,.06,0,.07,0,.33.35.69.11,1,.06.15,0,.3,0,.44,0s.21,0,.3-.08a.12.12,0,0,1,.19,0c.13.19.29.13.47.1s.44-.16.61.1c.06.09.18,0,.24,0s.31-.21.44,0c0,0,.08,0,.12.06V6a.2.2,0,0,1-.24.07A1.48,1.48,0,0,0,26,6a2.64,2.64,0,0,1-.73-.06A4.71,4.71,0,0,0,23.59,6a.19.19,0,0,1-.18,0c-.27-.25-.58-.09-.88-.1s-.52.09-.79.06a1.21,1.21,0,0,0-.53.06.37.37,0,0,1-.31,0,1.17,1.17,0,0,0-1,0,1.91,1.91,0,0,1-.71,0,2.65,2.65,0,0,0-1.05,0c-.13,0-.28,0-.4.08A.47.47,0,0,1,17.4,6a8.6,8.6,0,0,0-2.46-.78l-.3,0a9.08,9.08,0,0,0-1.88,0l-.3,0A7.9,7.9,0,0,0,9,6.27,7.78,7.78,0,0,0,7.18,7.8C7.12,7.87,7.07,8,7,8a.43.43,0,0,0-.39.08,0,0,0,0,1-.05,0c-.33-.08-.66.09-1,0-.06,0-.12-.06-.17,0-.21.05-.42.13-.56-.13,0,0-.07,0-.1,0A.48.48,0,0,1,4.33,8,.38.38,0,0,0,4,8.07a.35.35,0,0,1-.48,0,.42.42,0,0,0-.51,0A.59.59,0,0,1,2.3,8a.41.41,0,0,0-.51,0c-.31.25-.57.09-.84,0A.43.43,0,0,0,.64,8,.56.56,0,0,1,0,7.76Z" transform="translate(-0.03 -0.03)"/><path class="cls-5" d="M27,25.26c0,.52,0,1,0,1.56,0,.11,0,.15-.13.13H.27c-.2,0-.25,0-.24-.24,0-.52,0-1,0-1.55A.7.7,0,0,1,1,25c.26.2.45.08.64,0s.3-.25.51-.11c0,0,.05,0,.08,0,.2-.13.34,0,.47.14.13-.25.21-.3.45-.22a.36.36,0,0,0,.25,0,.58.58,0,0,1,.41,0,.84.84,0,0,0,.47,0,.36.36,0,0,1,.15,0c.14,0,.31,0,.37.13s-.07.26-.23.38c.18-.05.32-.07.4-.2a.31.31,0,0,1,.26-.12,1.23,1.23,0,0,0,.38-.08s.09-.05.12,0a1.44,1.44,0,0,0,.87,0,1.39,1.39,0,0,0,.35,0,.22.22,0,0,1,.21,0,.35.35,0,0,0,.14.06c.25,0,.47,0,.55.31.09-.1,0-.17,0-.23s.08-.24.21-.23a.8.8,0,0,1,.46.1.48.48,0,0,0,.49,0,.33.33,0,0,1,.35,0c.21.18.47.11.7.17a.19.19,0,0,0,.15,0,1.49,1.49,0,0,1,1.42-.09.26.26,0,0,0,.25,0,.61.61,0,0,1,.64,0,.77.77,0,0,0,.26,0,.5.5,0,0,1,.4.15.25.25,0,0,0,.35.05.94.94,0,0,1,.75-.14c.05,0,.11,0,.15.05.25.26.48.07.69-.06s.26-.19.43-.08a.08.08,0,0,0,.09,0c.21-.14.35,0,.49.13a.32.32,0,0,1,.47-.22l.05,0c.33-.12.67,0,1,0a1.63,1.63,0,0,1,.31,0c.11,0,.22,0,.27.12s0,.22-.11.3-.07,0-.08.08a.63.63,0,0,0,.38-.21.25.25,0,0,1,.2-.1c.3,0,.59-.19.89,0,.06,0,.16,0,.23,0a3.75,3.75,0,0,1,1.25,0c.18,0,.2.2.31.29.08-.07,0-.14,0-.2s.07-.24.21-.23a.87.87,0,0,1,.45.09.48.48,0,0,0,.5.05.34.34,0,0,1,.35,0c.21.18.46.11.69.17a.28.28,0,0,0,.2,0,1.42,1.42,0,0,1,1.15-.15c.22.06.41.14.6,0a.19.19,0,0,1,.13,0c.42.09.9,0,1.22.41A.77.77,0,0,0,27,25.26Z" transform="translate(-0.03 -0.03)"/><path class="cls-6" d="M27,21.74v2a.51.51,0,0,1-.43.16c-.41,0-.82,0-1.23,0a4.67,4.67,0,0,0-.52,0c-.35,0-.67-.19-1-.09a1.32,1.32,0,0,0-.33.08s0,0,0,0c-.31-.06-.62.06-.92,0a3,3,0,0,0-.67,0,5.38,5.38,0,0,1-1.5,0,7.46,7.46,0,0,0-1.34,0,4.31,4.31,0,0,0-1.34.08.39.39,0,0,1-.21,0,6.26,6.26,0,0,0-1.3-.06,10.13,10.13,0,0,1-1.46,0,4.29,4.29,0,0,0-1.43,0,2.83,2.83,0,0,1-.65,0c-.48,0-1,0-1.44,0a.44.44,0,0,1-.2,0,1.25,1.25,0,0,0-.95,0,.36.36,0,0,1-.27,0,.48.48,0,0,0-.39,0,.44.44,0,0,1-.3,0,1.9,1.9,0,0,0-.67-.05,5.09,5.09,0,0,1-1.51,0,7,7,0,0,0-1.3,0,4.5,4.5,0,0,0-1.37.08.36.36,0,0,1-.18,0,4.71,4.71,0,0,0-1.35-.06,10.5,10.5,0,0,1-1.86,0H.51a.63.63,0,0,1-.48-.1v-2c.07-.11.14-.23.28-.19a2.29,2.29,0,0,0,1.19,0,9.61,9.61,0,0,1,1.2,0l.38,0a1.11,1.11,0,0,1,.54,0,1.79,1.79,0,0,0,.86,0,1.31,1.31,0,0,1,.28,0,7.16,7.16,0,0,0,1.46.05,3.77,3.77,0,0,1,.47,0,1.3,1.3,0,0,0,.65-.05.28.28,0,0,1,.2,0,2.09,2.09,0,0,0,1,.06,2,2,0,0,1,1,.05.72.72,0,0,0,.41,0,.41.41,0,0,1,.31,0c.14.07.22-.06.33-.09a.53.53,0,0,1,.28,0,9.42,9.42,0,0,0,4.83.09l.31-.05c.26.23.56,0,.83.07a2.37,2.37,0,0,0,1,0c.36-.07.7.12,1.06.09l.91-.08a5,5,0,0,1,.86,0,7.53,7.53,0,0,0,1.5,0,1.51,1.51,0,0,1,.6,0,1.47,1.47,0,0,0,.75,0,.39.39,0,0,1,.21,0,3.69,3.69,0,0,0,1.24,0,1.28,1.28,0,0,1,.67,0,1.83,1.83,0,0,0,.77,0C26.61,21.64,26.8,21.59,27,21.74Z" transform="translate(-0.03 -0.03)"/><path class="cls-7" d="M27,1.61a5.54,5.54,0,0,0-1.15-.12c-.54-.1-1.07.12-1.6.05a3.43,3.43,0,0,1-.34-.06c-.23,0-.47,0-.68,0s-.62.23-.91,0a.12.12,0,0,0-.19,0c-.13.19-.27.14-.43.05l-.07,0c-.47,0-.93,0-1.4,0a4.81,4.81,0,0,1-1.07,0c-.23,0-.51,0-.72-.15,0,0-.06,0-.07,0-.18.26-.37.09-.59.06a1.86,1.86,0,0,0-.7.1.82.82,0,0,1-.58-.06c-.13-.05-.24-.09-.36,0s-.17,0-.25,0a1.3,1.3,0,0,0-.62,0,2,2,0,0,1-1-.06c-.08,0-.18-.06-.22,0-.17.24-.41.14-.6.11-.35-.07-.69,0-1-.08-.54-.1-1.07.12-1.6.05a3.43,3.43,0,0,1-.34-.06c-.23,0-.47,0-.68,0s-.62.23-.91,0a.12.12,0,0,0-.19,0c-.13.19-.27.14-.43.05l-.07,0c-.47.05-.93,0-1.4,0a4.72,4.72,0,0,1-1.06,0c-.24,0-.52,0-.73-.16,0,0,0,0,0,0-.17.2-.34.18-.59.08s-.44,0-.65.08a1,1,0,0,1-.74-.09s-.08,0-.1,0c-.42.22-.87,0-1.3.12a1.33,1.33,0,0,1-.75-.1c-.08,0-.18-.06-.24,0A.51.51,0,0,1,0,1.61c0-.48,0-1,0-1.44C0,.06.05,0,.16,0A.41.41,0,0,0,.27,0H26.71c.2,0,.25.05.24.24C26.94.72,27,1.16,27,1.61Z" transform="translate(-0.03 -0.03)"/><path class="cls-8" d="M0,19.06V15.12a4.48,4.48,0,0,1,.53-.21,1.69,1.69,0,0,1,.67,0c.47,0,.93,0,1.4,0a.57.57,0,0,1,.26,0c.07,0,.14.06.2,0a3,3,0,0,1,1.08,0,1.85,1.85,0,0,1,1.13.2,1,1,0,0,1,.14.41,8,8,0,0,0,1.45,3.19.39.39,0,0,1,.13.33s0,.08-.06.09c-.27,0-.54.25-.83.07a.26.26,0,0,0-.21,0,1.36,1.36,0,0,1-1,0,.33.33,0,0,0-.32,0c-.07.05-.14.1-.22.07a1.56,1.56,0,0,0-.68-.06c-.53,0-1-.16-1.57-.06a2.93,2.93,0,0,1-.78,0,2.31,2.31,0,0,0-.74,0A.67.67,0,0,1,0,19.06Z" transform="translate(-0.03 -0.03)"/><path class="cls-9" d="M0,7.76a1.56,1.56,0,0,0,.71,0c.24-.07.39.16.6.21s.17.08.23,0,.27-.13.42-.17.38-.12.46.17c0,.06.12.06.16,0S2.85,8,3,8s0-.25.16-.27a.36.36,0,0,1,.28.12s.08.07.13,0,.11,0,.13,0,.14.16.23.06a.45.45,0,0,1,.6-.13s.09,0,.09,0,0-.22.22-.15.27.1.23.32c.19-.33.4-.12.61,0,0,0,.12.1.15,0,.14-.3.33-.09.49-.06s.23.13.26-.09.06-.06.11,0l.28.08a.33.33,0,0,1-.07.3,9.13,9.13,0,0,0-1.11,2.15,9,9,0,0,0-.28,1c0,.14,0,.31-.21.37s-.14,0-.21,0a1.15,1.15,0,0,1-.86.07,1.79,1.79,0,0,0-1.07,0,.28.28,0,0,1-.28,0c-.31-.25-.63-.12-1-.05a1,1,0,0,1-.74,0,1.92,1.92,0,0,0-.72,0c-.14,0-.29,0-.39-.12Z" transform="translate(-0.03 -0.03)"/><path class="cls-10" d="M0,19.06c.31,0,.62.08.91-.09.17.18.43-.11.59.12.33-.09.67.05,1-.05a.67.67,0,0,1,.44,0,1.69,1.69,0,0,0,.5,0c.28,0,.57-.12.84.07.09.07.18,0,.26-.06a.33.33,0,0,1,.38-.05,1,1,0,0,0,.94,0c.11-.07.23,0,.32.07a.16.16,0,0,0,.28,0,.17.17,0,0,1,.24,0,.21.21,0,0,0,.24,0c.16-.05.23.06.31.15a8.19,8.19,0,0,0,2.38,1.79c.24.12.5.2.75.31.1,0,.23.06.2.22s-.2.2-.36.12a.31.31,0,0,0-.23,0,.67.67,0,0,1-.46,0c-.4-.18-.79,0-1.18,0s-.58.14-.84-.07c0,0,0,0,0,0-.42.19-.87,0-1.3.07-.2,0-.42,0-.64,0a7.49,7.49,0,0,0-1.77,0c-.17.05-.26-.15-.44-.12a4.68,4.68,0,0,1-1.06,0,.58.58,0,0,1-.32,0s-.08,0-.11,0c-.3.2-.65.07-1,.11a.79.79,0,0,1-.46-.05.39.39,0,0,0-.38,0Z" transform="translate(-0.03 -0.03)"/><path class="cls-9" d="M27,8v3.47a.46.46,0,0,1-.57.35,6.56,6.56,0,0,0-1.17,0,4.3,4.3,0,0,0-.8.05.44.44,0,0,1-.25,0,.74.74,0,0,0-.36,0,10.32,10.32,0,0,1-2.08,0c-.18-.07-.16-.24-.2-.37a8.67,8.67,0,0,0-1.09-2.63A2,2,0,0,1,20,8a.28.28,0,0,1,.32-.24,2.66,2.66,0,0,1,.49,0c.26.1.54,0,.8.14s.38,0,.56-.09a.22.22,0,0,1,.22,0,1.62,1.62,0,0,0,1,.16,1.68,1.68,0,0,1,.39,0,1,1,0,0,0,.68-.1c.18-.09.41-.09.59-.2h0c.24.17.55.12.81.22l.26.13a.21.21,0,0,0,.31-.08C26.64,7.67,26.77,7.69,27,8Z" transform="translate(-0.03 -0.03)"/><path class="cls-11" d="M27,25.26s-.08,0-.11,0a2,2,0,0,0-.94-.36c-.18,0-.31-.08-.48.05A.32.32,0,0,1,25,25a.56.56,0,0,0-.52-.1.92.92,0,0,1-.44.05s-.11,0-.12.06c-.05.23-.18.19-.33.13a.65.65,0,0,0-.39,0,.18.18,0,0,1-.2,0c-.15-.22-.34-.18-.56-.1a.36.36,0,0,1-.45-.09c-.11-.12-.33.08-.44-.11,0,0-.06,0-.06.09s0,.12,0,.18.2.15.15.24-.17-.09-.24,0c-.29.24-.24,0-.28-.17s0-.09,0-.1l-.7-.05c-.05,0-.11.1-.16.07s-.33,0-.49,0-.34.13-.47-.08-.11,0-.17,0a1.67,1.67,0,0,1-.3.08c-.22,0-.45,0-.2.36a.39.39,0,0,0-.55,0c-.07.07-.15,0-.21,0s0-.15,0-.21a.26.26,0,0,1,.09-.09c.09-.05.26-.08.22-.19s-.23-.08-.32,0a1,1,0,0,1-.67,0,.24.24,0,0,0-.23,0,.26.26,0,0,1-.39,0,.16.16,0,0,0-.2,0c-.07.06,0,.14,0,.22s.14.19,0,.24-.13-.1-.17-.19a.48.48,0,0,0-.19-.21c-.07-.06-.15-.09-.15.06s0,.14-.11.14A.13.13,0,0,1,15.5,25c-.05-.18-.14-.17-.23-.05s-.35.15-.46.33-.19,0-.25-.07a.71.71,0,0,0-1,0c-.2.13-.34.11-.47-.07l0,0A1.6,1.6,0,0,0,11.94,25c-.13.07-.29.16-.46,0a.5.5,0,0,0-.49-.1.9.9,0,0,1-.46.05s-.11,0-.11,0c-.06.29-.24.17-.4.12a.65.65,0,0,0-.31,0c-.07,0-.16,0-.2,0-.17-.24-.39-.18-.61-.1a.34.34,0,0,1-.41-.09c-.12-.13-.34.06-.45-.12,0,0-.06.05-.06.1l.07.22c0,.08.18.11.12.2S8,25.2,8,25.22c-.34.23-.29-.07-.35-.24,0,0,0,0,0,0-.24,0-.47,0-.71,0,0,0-.11.07-.13.06-.26-.16-.48,0-.72,0C6,25,6,25,6,25c-.28-.32-.57,0-.85,0s0,.18,0,.31a.38.38,0,0,0-.52.05c-.07.06-.16,0-.22,0s0-.13,0-.19A.53.53,0,0,1,4.5,25c.08,0,.22-.06.18-.18s-.18-.07-.25,0a1.36,1.36,0,0,1-.8,0,.22.22,0,0,0-.2.05.22.22,0,0,1-.32,0,.18.18,0,0,0-.24,0,.21.21,0,0,0,0,.24c0,.08.09.16,0,.2s-.15-.05-.17-.14a.45.45,0,0,0-.15-.21c-.09-.07-.2-.2-.21.05a.09.09,0,0,1-.09.11.13.13,0,0,1-.16-.1c-.06-.23-.17-.15-.26,0s-.33.13-.45.3-.2,0-.27-.09a.64.64,0,0,0-.76-.1c-.09,0-.19.06-.28.09V24.11a.4.4,0,0,1,.28-.06,12.35,12.35,0,0,0,1.36,0c.35,0,.67,0,1,0A2.82,2.82,0,0,0,3.78,24a1.82,1.82,0,0,1,.8,0A.72.72,0,0,0,5,24a.09.09,0,0,1,.07,0c.27.13.53,0,.79,0s.37,0,.49.15.12,0,.18,0a3.73,3.73,0,0,0,.54-.1,1.26,1.26,0,0,1,.74,0,5.34,5.34,0,0,0,1.44,0,1.31,1.31,0,0,1,.28,0A4.31,4.31,0,0,0,10.71,24a.28.28,0,0,1,.2,0,.57.57,0,0,0,.38.07c.38-.06.76,0,1.14-.05a1,1,0,0,1,.34,0c.18.06.36.1.51-.06a.17.17,0,0,1,.15-.05,2.41,2.41,0,0,0,.89.09,3.48,3.48,0,0,0,1.16,0c.15-.06.3.07.46.07A3.46,3.46,0,0,0,17.22,24a2.29,2.29,0,0,1,.86,0,.53.53,0,0,0,.33,0,.15.15,0,0,1,.13,0c.32.15.63-.05.94,0a.31.31,0,0,1,.26.1.21.21,0,0,0,.25.1,3.21,3.21,0,0,0,.52-.1,1.35,1.35,0,0,1,.82,0,5.38,5.38,0,0,0,1.33,0,.88.88,0,0,1,.23,0A4.62,4.62,0,0,0,24.18,24a.34.34,0,0,1,.2,0,.6.6,0,0,0,.39.07c.38-.06.77,0,1.16-.05a.78.78,0,0,1,.34,0,.4.4,0,0,0,.44,0,.17.17,0,0,1,.24,0Z" transform="translate(-0.03 -0.03)"/><path class="cls-12" d="M27,21.74c-.37.08-.76,0-1.13.14a.27.27,0,0,1-.17,0,.92.92,0,0,0-.69-.05,3,3,0,0,1-1.27,0c-.17,0-.3.07-.48,0a4,4,0,0,0-1.42,0,4.33,4.33,0,0,1-1.39,0,13.58,13.58,0,0,0-1.69,0,.43.43,0,0,1-.16,0,1.56,1.56,0,0,0-1,0,3.86,3.86,0,0,1-.83,0,.5.5,0,0,0-.27,0c-.15.07-.27,0-.39-.08,0-.2.18-.2.3-.24a8.16,8.16,0,0,0,2.31-1.23,6.33,6.33,0,0,0,.56-.47c.07-.07.14-.16.26-.15a1.3,1.3,0,0,0,.73-.06.73.73,0,0,1,.39,0,7.53,7.53,0,0,0,1.06.05,5.46,5.46,0,0,0,1,0,.92.92,0,0,1,.59.06.46.46,0,0,0,.38,0,1.42,1.42,0,0,1,.58-.05c.37,0,.74,0,1.11.06.21,0,.43,0,.65,0a1.43,1.43,0,0,0,.65-.05.26.26,0,0,1,.33.08Z" transform="translate(-0.03 -0.03)"/><path class="cls-13" d="M0,11.6a2.21,2.21,0,0,1,.81,0,3.17,3.17,0,0,0,1.59-.06.38.38,0,0,1,.4.13.12.12,0,0,0,.18.05.76.76,0,0,1,.62-.09.62.62,0,0,0,.48-.06c.09-.08.15,0,.22.06a.4.4,0,0,0,.56,0c.17-.27.25-.1.35.05s.1.2.09.32a12.15,12.15,0,0,0-.12,1.7c0,.42.06.85.11,1.27,0,.1,0,.21-.09.28a1.76,1.76,0,0,0-.5-.09,6.11,6.11,0,0,1-1.05-.08.27.27,0,0,0-.23,0,.54.54,0,0,1-.33,0c-.65-.16-1.3.05-1.95-.06C1,15,.85,15.15.7,15s-.16,0-.23.08a.36.36,0,0,1-.44,0Z" transform="translate(-0.03 -0.03)"/><path class="cls-4" d="M27,8c-.18-.09-.38-.24-.41.13,0,.07-.11.11-.17.1-.23,0-.47,0-.62-.25s-.13,0-.18,0-.2.19-.28,0a.24.24,0,0,0-.24-.17c-.14,0-.14.12-.15.23s0,.12-.07.13-.09-.05-.11-.09-.19-.13-.31-.07a1.08,1.08,0,0,1-.73.1.66.66,0,0,0-.39.05A2.62,2.62,0,0,1,22.34,8s-.07-.1-.08-.07c-.1.21-.31.07-.44.16h0c-.19.08-.3-.09-.45-.14s-.3.21-.45,0l0,0c-.23.22-.56-.13-.79.13-.11,0-.18,0-.25-.08a7.45,7.45,0,0,0-1.93-1.65A.21.21,0,0,1,17.75,6a.82.82,0,0,1,.66-.21c.31.09.63,0,.95.07.1,0,.28-.1.38.08,0,0,.06,0,.07,0,.23-.28.61,0,.85-.25.06,0,.13,0,.17.09S21,6,21,5.91s.42,0,.59-.16l0,0c.22.31.48-.16.75,0,.08.06.39,0,.59-.07s.22,0,.28,0,.33.09.54.08a5.78,5.78,0,0,1,1.61,0,1.29,1.29,0,0,0,.8,0c.15-.07.24.11.38.12A2,2,0,0,1,27,6Z" transform="translate(-0.03 -0.03)"/><path class="cls-14" d="M27,15.12V18a.28.28,0,0,1-.27.17,2.27,2.27,0,0,0-.68.09.59.59,0,0,1-.23,0,4.58,4.58,0,0,0-1.61,0,.37.37,0,0,1-.23,0,1,1,0,0,0-.62,0,1.53,1.53,0,0,1-1-.08.34.34,0,0,0-.26,0,2.36,2.36,0,0,1-.95.1c-.2,0-.24-.18-.35-.29a.22.22,0,0,1,0-.22,9.15,9.15,0,0,0,.89-2.69.53.53,0,0,1,.08-.22.6.6,0,0,1,.73,0,.18.18,0,0,0,.2,0,1.31,1.31,0,0,1,.48-.08,1.17,1.17,0,0,1,.59.05,1.61,1.61,0,0,0,.49,0,2.12,2.12,0,0,0,1.06-.09c.23.13.48,0,.72.1.05,0,.11,0,.15,0,.35-.22.55,0,.76.23Z" transform="translate(-0.03 -0.03)"/><path class="cls-13" d="M27,15.12a.56.56,0,0,1-.23-.07c-.17-.13-.33-.26-.53,0A.14.14,0,0,1,26,15c-.13-.08-.29,0-.4,0-.33-.13-.64.12-.9,0s-.82.05-1.23-.12a1.18,1.18,0,0,0-.78.07c-.08,0-.19.12-.24,0-.19-.27-.46-.12-.69-.16s-.11-.18-.1-.3c0-.32.06-.64.07-1A14.18,14.18,0,0,0,21.65,12c0-.13,0-.26.08-.36a13.07,13.07,0,0,1,1.77,0c.16,0,.3-.14.46-.08s.61,0,.91.1c.15,0,.17,0,.18-.29.26.33.6.26.93.23a1.08,1.08,0,0,1,.31,0,.64.64,0,0,0,.66-.21Z" transform="translate(-0.03 -0.03)"/><path class="cls-11" d="M27,24.06s-.11,0-.12,0c-.14.31-.36.18-.57.12a6,6,0,0,0-.85,0c-.38-.05-.78.19-1.14-.09,0,0-.06,0-.07,0-.24.18-.54,0-.78.13,0,0-.05,0-.08,0a8.87,8.87,0,0,0-1.63,0,2.74,2.74,0,0,1-.8-.1c-.13-.05-.23,0-.28.15s-.11.2-.17.07-.16-.15-.3-.07a1.07,1.07,0,0,1-.41.08c-.18,0-.1-.17-.13-.21-.36-.12-.67.06-1,0a3.62,3.62,0,0,0-1.31,0,3.14,3.14,0,0,1-1.46,0c-.27-.05-.49.07-.75,0a3.21,3.21,0,0,0-.81,0,2.14,2.14,0,0,1-.85-.11.1.1,0,0,0-.09,0c-.09.28-.28.16-.45.11a5,5,0,0,0-1,0c-.37,0-.77.2-1.11-.09a.11.11,0,0,0-.08,0c-.24.18-.54,0-.78.13,0,0-.05,0-.07,0a8.88,8.88,0,0,0-1.63,0,2.7,2.7,0,0,1-.8-.1.19.19,0,0,0-.28.15c0,.09-.11.19-.18.07s-.15-.15-.3-.07a.87.87,0,0,1-.4.08c-.18,0-.13-.16-.14-.21-.36-.12-.67.07-1,0a3.62,3.62,0,0,0-1.31,0,3.1,3.1,0,0,1-1.45,0c-.27-.05-.5.07-.76,0a4.49,4.49,0,0,0-.81,0A2,2,0,0,1,0,24.11v-.42c.27,0,.54-.05.81,0a7.51,7.51,0,0,0,1.26.05,4.47,4.47,0,0,1,1.89,0,.86.86,0,0,0,.46,0,4.17,4.17,0,0,1,1.17,0l1,0c.28,0,.54.18.82.1s.62,0,.92-.1a.46.46,0,0,1,.31,0c.35.14.71,0,1.06.05a3.36,3.36,0,0,0,.73-.12.44.44,0,0,1,.28,0,1.59,1.59,0,0,0,.94.06,2.1,2.1,0,0,1,.56,0,12,12,0,0,0,1.8-.07,1.65,1.65,0,0,1,.62,0,1.26,1.26,0,0,0,.64.05,10.13,10.13,0,0,1,1.23-.06c.32,0,.62.07.93.09a3.1,3.1,0,0,0,.67-.1,6,6,0,0,1,.85,0,10.51,10.51,0,0,1,1.12,0c.25,0,.49.16.75.1s.67,0,1-.1a.48.48,0,0,1,.29,0c.34.15.7,0,1.06.05a3.28,3.28,0,0,0,.72-.12.48.48,0,0,1,.29,0,1.38,1.38,0,0,0,.94.05,1.65,1.65,0,0,1,.5,0c.43,0,.85,0,1.27,0Z" transform="translate(-0.03 -0.03)"/><path class="cls-8" d="M20.8,18a1.27,1.27,0,0,0,1.25.05.55.55,0,0,1,.4,0,1.21,1.21,0,0,0,.62.09,1.8,1.8,0,0,1,.95,0c.22.05.44-.09.68-.05s.7,0,1.06,0A6.06,6.06,0,0,0,27,18v1.63a7.23,7.23,0,0,1-1.61.1s0,0-.05,0c-.41-.16-.84,0-1.25-.1a.51.51,0,0,0-.38.08.49.49,0,0,1-.52,0,.25.25,0,0,0-.2-.05,7,7,0,0,1-1.12.06,3.79,3.79,0,0,1-.95,0,1.36,1.36,0,0,0-.75,0,1,1,0,0,1-.64,0c-.07-.11,0-.18.06-.25a7.6,7.6,0,0,0,1-1.36C20.62,18,20.67,17.91,20.8,18Z" transform="translate(-0.03 -0.03)"/><path class="cls-15" d="M20.8,18a9.65,9.65,0,0,1-1.32,1.73,8.52,8.52,0,0,1-3.42,2,12.05,12.05,0,0,1-2.38.32,10.37,10.37,0,0,1-3.08-.43,9.25,9.25,0,0,1-2.36-1.26A12.21,12.21,0,0,1,7,19.11a10.5,10.5,0,0,1-1-1.73,9.11,9.11,0,0,1-.68-2.15,11.22,11.22,0,0,1-.1-2.59c0-.33.07-.66.11-1a11.77,11.77,0,0,1,.53-1.75,9.58,9.58,0,0,1,1.15-2A9,9,0,0,1,8.84,6.23,8.42,8.42,0,0,1,12.44,5c.09,0,.2,0,.29,0a18.58,18.58,0,0,1,2,0c.08.06.18,0,.26,0a9.76,9.76,0,0,1,2.32.72l.47.23A7.72,7.72,0,0,1,19.53,7.4l.53.58a8.9,8.9,0,0,1,1.61,3.42c0,.09,0,.18.06.25a12.41,12.41,0,0,1,.15,2.11c0,.37-.05.73-.08,1.1A9,9,0,0,1,20.8,18Z" transform="translate(-0.03 -0.03)"/><path class="cls-3" d="M12.73,5a.57.57,0,0,1-.29,0A.48.48,0,0,1,12.73,5Z" transform="translate(-0.03 -0.03)"/><path class="cls-3" d="M15,5.07a.46.46,0,0,1-.26,0A.46.46,0,0,1,15,5.07Z" transform="translate(-0.03 -0.03)"/><path class="cls-11" d="M20,25.21a.1.1,0,0,1-.11.09.07.07,0,0,1-.09-.07c0-.07.08-.08.15-.09A.05.05,0,0,1,20,25.21Z" transform="translate(-0.03 -0.03)"/><path class="cls-11" d="M6.57,25.23a.1.1,0,0,1-.12.07s-.08,0-.06-.08a.13.13,0,0,1,.13-.07S6.57,25.19,6.57,25.23Z" transform="translate(-0.03 -0.03)"/><path class="cls-11" d="M8.72,25.16l0,0s0,0,0,0,0,0,0,0Z" transform="translate(-0.03 -0.03)"/><path class="cls-11" d="M22.15,25.14a.05.05,0,0,1,0,0h0l0,0Z" transform="translate(-0.03 -0.03)"/><path class="cls-11" d="M12.56,25.26l0,0h-.08Z" transform="translate(-0.03 -0.03)"/><path class="cls-11" d="M26.08,25.3H26v0H26Z" transform="translate(-0.03 -0.03)"/><path class="cls-13" d="M1.75,11.18c.07,0,.18,0,.17.07s-.12.15-.21.16a.11.11,0,0,1-.12-.13C1.59,11.17,1.69,11.19,1.75,11.18Z" transform="translate(-0.03 -0.03)"/><path class="cls-13" d="M1.18,11.26s-.05,0-.07,0,0,0-.05,0,0,0,.05,0S1.15,11.24,1.18,11.26Z" transform="translate(-0.03 -0.03)"/><path class="cls-13" d="M24.54,11.32c.05,0,.07,0,.07.07a0,0,0,0,1-.05,0,.09.09,0,0,1-.06-.07S24.53,11.33,24.54,11.32Z" transform="translate(-0.03 -0.03)"/><path class="cls-9" d="M24,7.88s.06-.08.08-.09.14-.13.25-.1,0,.06,0,.09A.26.26,0,0,1,24,7.88Z" transform="translate(-0.03 -0.03)"/><path class="cls-9" d="M22.13,7.68l0,0,0,0s0,0,0,0Z" transform="translate(-0.03 -0.03)"/><path class="cls-16" d="M8.28,8.44a6.16,6.16,0,0,1,3.49-2,7.66,7.66,0,0,1,5.33.73A5.3,5.3,0,0,1,18.81,8.6c0,.17-.17.17-.31.15A2.31,2.31,0,0,0,18,8.7c-.17,0-.27-.12-.38-.21a6,6,0,0,0-3.38-1.4A7.12,7.12,0,0,0,11,7.5a6.13,6.13,0,0,0-1.37.76.72.72,0,0,1-.36.2c-.23-.1-.45,0-.67.06S8.35,8.61,8.28,8.44Z" transform="translate(-0.03 -0.03)"/><path class="cls-10" d="M18.28,19a6.71,6.71,0,0,1-3,1.53A8,8,0,0,1,10,19.9a2.81,2.81,0,0,1-.64-.39c0-.24.15-.21.3-.17a1.67,1.67,0,0,0,.83,0,7.83,7.83,0,0,1,1,.31,7.57,7.57,0,0,0,2.72.25,6.25,6.25,0,0,0,3.17-1.14c.07-.05.14-.11.23-.09a1.31,1.31,0,0,0,.48.12C18.19,18.8,18.31,18.81,18.28,19Z" transform="translate(-0.03 -0.03)"/><path class="cls-9" d="M18,8.61c.27-.06.55.09.82,0A5.69,5.69,0,0,1,20,10.53a6.72,6.72,0,0,1,.51,2.7.23.23,0,0,1-.23.09c-.18-.05-.21.06-.22.2s0,.24,0,.37,0,.21-.19.19-.1-.27-.1-.41a7.84,7.84,0,0,0-.16-1.87,6.36,6.36,0,0,0-1.36-2.75C18.11,8.93,18,8.82,18,8.61Z" transform="translate(-0.03 -0.03)"/><path class="cls-14" d="M18.28,19a.26.26,0,0,0-.24-.07.58.58,0,0,1-.45-.16c-.07-.17.09-.24.17-.31a5.71,5.71,0,0,0,1.38-1.92c.11-.24.2-.5.29-.75a.36.36,0,0,1,.2-.29c.42,0,.51,0,.56.31a.24.24,0,0,1,0,.08,6.11,6.11,0,0,1-1.09,2.25A4.35,4.35,0,0,1,18.28,19Z" transform="translate(-0.03 -0.03)"/><path class="cls-17" d="M7.75,17.87a6.58,6.58,0,0,1-1.09-2.55,3.49,3.49,0,0,1-.11-.91.23.23,0,0,1,.1-.31.46.46,0,0,1,.48,0c.16.11.14.3.16.45a6.7,6.7,0,0,0,.93,2.61.52.52,0,0,1,.12.31C8.23,17.77,8,17.77,7.75,17.87Z" transform="translate(-0.03 -0.03)"/><path class="cls-13" d="M7.12,14.23c-.36-.11-.49-.07-.57.18a6,6,0,0,1,0-1.53,6.45,6.45,0,0,1,.4-2.08l.14-.11c.27-.22.41-.19.59.12a.28.28,0,0,1,0,.13,7.87,7.87,0,0,0-.39,2.81C7.26,13.91,7.32,14.11,7.12,14.23Z" transform="translate(-0.03 -0.03)"/><path class="cls-9" d="M7.56,10.82c-.12-.15-.24-.21-.41-.07a.3.3,0,0,1-.24.05A6.23,6.23,0,0,1,8.28,8.44c.25,0,.46-.13.7-.13s.19,0,.25.07,0,.2-.11.27a6.71,6.71,0,0,0-1.33,2C7.74,10.73,7.71,10.85,7.56,10.82Z" transform="translate(-0.03 -0.03)"/><path class="cls-8" d="M7.75,17.87c0-.15.07-.28.29-.24s.15-.06.23-.09c.25,0,.36.25.49.4a6.09,6.09,0,0,0,1.54,1.23c.1.06.24.09.2.26-.3,0-.59.22-.9,0-.08-.06-.16,0-.22.07A5.66,5.66,0,0,1,7.75,17.87Z" transform="translate(-0.03 -0.03)"/><path class="cls-18" d="M20.17,15.87a.27.27,0,0,0-.29-.24.32.32,0,0,1-.23-.09.16.16,0,0,1-.09-.2c.05-.38.12-.76.19-1.14a.15.15,0,0,1,.11-.13,2.07,2.07,0,0,0,0-.7c0-.29.05-.32.33-.2a.71.71,0,0,0,.25.06A7.39,7.39,0,0,1,20.17,15.87Z" transform="translate(-0.03 -0.03)"/><path class="cls-15" d="M19.86,14.07a14.45,14.45,0,0,1-.21,1.47,8.09,8.09,0,0,1-.7,1.63,5.88,5.88,0,0,1-1.36,1.58,6.93,6.93,0,0,1-6.71.83l-.38-.15A7.14,7.14,0,0,1,8.58,18a1.53,1.53,0,0,1-.31-.41A7,7,0,0,1,7.21,14.9l-.09-.67A10.21,10.21,0,0,1,7.3,11.7a5.54,5.54,0,0,1,.26-.88A6.93,6.93,0,0,1,8.68,9c.17-.2.37-.39.55-.58a6.37,6.37,0,0,1,2.18-1.16,6.79,6.79,0,0,1,6.1,1c.17.12.32.27.48.4a6.49,6.49,0,0,1,1.72,3.27A10.66,10.66,0,0,1,19.86,14.07Z" transform="translate(-0.03 -0.03)"/><path class="cls-13" d="M18.14,11.43a6,6,0,0,1,.08,3.85c-.36-.09-.74,0-1.11-.1a.36.36,0,0,0-.23,0,.58.58,0,0,1-.29,0,8.6,8.6,0,0,0-1.52,0,2.82,2.82,0,0,1-.87,0,.22.22,0,0,0-.18,0c-.29.19-.6.08-.91.06a2.64,2.64,0,0,0-1,0s-.07,0-.1,0c-.26-.12-.53,0-.8,0a6.2,6.2,0,0,0-1.14,0,.67.67,0,0,1-.28,0,1,1,0,0,0-.59,0c-.2.08-.36-.05-.53-.14a5.68,5.68,0,0,1-.18-2.17,4.27,4.27,0,0,1,.28-1.32A.73.73,0,0,0,9,11.31c0-.13.18-.16.23,0s.31.19.45.16a3.34,3.34,0,0,1,.95,0c.15,0,.24,0,.3-.15a.2.2,0,0,1,.36-.06c.08.08.12.15.24,0s.23,0,.32.07a.32.32,0,0,0,.3.12,9.18,9.18,0,0,0,1.17-.07,4.21,4.21,0,0,1,1.17.05c.23,0,.46.15.71,0l.06,0a7.55,7.55,0,0,0,.83-.13,1.92,1.92,0,0,1,.92.12,1.16,1.16,0,0,0,.79-.12A.27.27,0,0,1,18.14,11.43Z" transform="translate(-0.03 -0.03)"/><path class="cls-8" d="M8.7,15.08c.05-.12.13-.11.2,0a.22.22,0,0,0,.27.06.89.89,0,0,1,.73,0,.36.36,0,0,0,.25,0c.06,0,.13-.06.17,0,.31.12.64,0,.95.07a.58.58,0,0,0,.34,0,.33.33,0,0,1,.32,0,.15.15,0,0,0,.12,0c.21-.15.45,0,.63-.05.33-.09.6.09.9.05.05,0,.11,0,.15,0a.68.68,0,0,1,.68-.09,1.52,1.52,0,0,0,.57,0A5.71,5.71,0,0,0,16.15,15h.05c.41.25.86-.05,1.27.1.17.06.36,0,.55,0s.18.06.2.17a4.49,4.49,0,0,1-1.9,2.66,5.29,5.29,0,0,1-6.14-.36,5,5,0,0,1-1.47-2.35A.76.76,0,0,1,8.7,15.08Z" transform="translate(-0.03 -0.03)"/><path class="cls-9" d="M18.14,11.43c-.09,0-.16-.12-.24,0s.08.15,0,.28c-.15-.22-.33-.13-.53-.09a2.78,2.78,0,0,1-.7,0c-.05,0-.11-.05-.17,0s0,.17-.13.1.05-.14,0-.21a4.59,4.59,0,0,1-1.17.1c-.08-.07,0-.16,0-.27-.11.12-.08.2,0,.27-.11.25-.32.15-.47.1a3.56,3.56,0,0,0-1.37-.11c-.43,0-.86,0-1.29.09a.3.3,0,0,1-.36-.18.13.13,0,0,0-.15-.08c-.08,0-.08.08-.07.15s.08.12,0,.15-.14,0-.19-.05a.22.22,0,0,1-.09-.16c0-.09-.06-.22-.18-.17s0,.13,0,.21-.06.15-.13.15l-.85-.06a5.46,5.46,0,0,0-.7,0c-.26,0-.28,0-.24-.24,0,0,0,0,0-.11-.11.13-.12.33-.31.34a4.46,4.46,0,0,1,2.66-2.95,5,5,0,0,1,5.24.7A4.37,4.37,0,0,1,18.14,11.43Z" transform="translate(-0.03 -0.03)"/><path class="cls-13" d="M15.28,11.12l.18,0a.1.1,0,0,1,0,.19c-.16,0-.18.27-.36.16a.21.21,0,0,1-.12-.24C15,11.09,15.17,11.14,15.28,11.12Z" transform="translate(-0.03 -0.03)"/><path class="cls-13" d="M14.67,11.24c0,.07,0,.11-.11.11s-.1,0-.1-.09,0-.09.1-.1A.08.08,0,0,1,14.67,11.24Z" transform="translate(-0.03 -0.03)"/><path class="cls-13" d="M17.25,11.47c-.05,0-.08,0-.08-.07a.1.1,0,0,1,.11-.09s.08,0,.07.07S17.31,11.47,17.25,11.47Z" transform="translate(-0.03 -0.03)"/><path class="cls-13" d="M10.54,11.29a.16.16,0,0,1,.2-.11s0,.05,0,.06A.17.17,0,0,1,10.54,11.29Z" transform="translate(-0.03 -0.03)"/><path class="cls-13" d="M12.56,11.33l0-.07s0,0,.06,0,0,0,0,0Z" transform="translate(-0.03 -0.03)"/></g><path class="cls-12" d="M54.88,21.74a13,13,0,0,1-17.64,0A11.68,11.68,0,0,1,37.25,5,13,13,0,0,1,54.89,5a11.68,11.68,0,0,1,0,16.78M46.09,5.35a7.73,7.73,0,0,0-7.8,8,7.78,7.78,0,1,0,15.56,0,7.73,7.73,0,0,0-7.76-8m38-1.07L74.58,25.46l-.54-.1c-2.72-.49-3.26-1.16-4.54-3.92L62.37,5.94H59.7V2.16H69.82V5.94H67.4l5.73,12.84L78.68,5.94h-3V2.16h8.41Zm23,17.46a13,13,0,0,1-17.65,0A11.69,11.69,0,0,1,89.49,5a13,13,0,0,1,17.65,0,11.69,11.69,0,0,1,0,16.78M98.34,5.35a7.73,7.73,0,0,0-7.8,8,7.78,7.78,0,1,0,15.55,0,7.72,7.72,0,0,0-7.75-8" transform="translate(-0.03 -0.03)"/></g></g></svg>